{
	"patcher" : 	{
		"fileversion" : 1,
		"appversion" : 		{
			"major" : 7,
			"minor" : 2,
			"revision" : 5,
			"architecture" : "x64",
			"modernui" : 1
		}
,
		"rect" : [ 3726.0, 577.0, 163.0, 159.0 ],
		"bgcolor" : [ 0.0, 0.0, 0.0, 1.0 ],
		"bglocked" : 0,
		"openinpresentation" : 1,
		"default_fontsize" : 12.0,
		"default_fontface" : 0,
		"default_fontname" : "Arial",
		"gridonopen" : 1,
		"gridsize" : [ 15.0, 15.0 ],
		"gridsnaponopen" : 1,
		"objectsnaponopen" : 1,
		"statusbarvisible" : 2,
		"toolbarvisible" : 1,
		"lefttoolbarpinned" : 0,
		"toptoolbarpinned" : 0,
		"righttoolbarpinned" : 0,
		"bottomtoolbarpinned" : 0,
		"toolbars_unpinned_last_save" : 0,
		"tallnewobj" : 0,
		"boxanimatetime" : 200,
		"enablehscroll" : 1,
		"enablevscroll" : 1,
		"devicewidth" : 0.0,
		"description" : "",
		"digest" : "",
		"tags" : "",
		"style" : "",
		"subpatcher_template" : "",
		"boxes" : [ 			{
				"box" : 				{
					"bgcolor" : [ 0.095481, 0.100396, 0.100293, 1.0 ],
					"checkedcolor" : [ 0.952941, 0.564706, 0.098039, 1.0 ],
					"id" : "obj-51",
					"maxclass" : "toggle",
					"numinlets" : 1,
					"numoutlets" : 1,
					"outlettype" : [ "int" ],
					"parameter_enable" : 0,
					"patching_rect" : [ 448.833344, 32.333313, 24.0, 24.0 ],
					"presentation" : 1,
					"presentation_rect" : [ 54.979164, 114.699982, 20.0, 20.0 ],
					"style" : "",
					"uncheckedcolor" : [ 0.701961, 0.415686, 0.886275, 1.0 ],
					"varname" : "ptch_fm_select_freq_src[1]"
				}

			}
, 			{
				"box" : 				{
					"bgcolor" : [ 0.095481, 0.100396, 0.100293, 1.0 ],
					"checkedcolor" : [ 0.952941, 0.564706, 0.098039, 1.0 ],
					"id" : "obj-110",
					"maxclass" : "toggle",
					"numinlets" : 1,
					"numoutlets" : 1,
					"outlettype" : [ "int" ],
					"parameter_enable" : 0,
					"patching_rect" : [ 308.0, 347.0, 24.0, 24.0 ],
					"presentation" : 1,
					"presentation_rect" : [ 133.958313, 114.699982, 20.0, 20.0 ],
					"style" : "",
					"uncheckedcolor" : [ 0.701961, 0.415686, 0.886275, 1.0 ],
					"varname" : "ptch_fm_select_freq_src"
				}

			}
, 			{
				"box" : 				{
					"angle" : 270.0,
					"bgcolor" : [ 0.3, 0.3, 0.3, 0.5 ],
					"id" : "obj-70",
					"maxclass" : "panel",
					"mode" : 0,
					"numinlets" : 1,
					"numoutlets" : 0,
					"patching_rect" : [ 821.0, 78.200012, 40.0, 40.0 ],
					"presentation" : 1,
					"presentation_rect" : [ 107.979164, 35.5, 50.0, 56.199982 ],
					"proportion" : 0.39,
					"rounded" : 0,
					"style" : ""
				}

			}
, 			{
				"box" : 				{
					"id" : "obj-33",
					"maxclass" : "comment",
					"numinlets" : 1,
					"numoutlets" : 0,
					"patching_rect" : [ 717.833313, 735.049988, 36.0, 20.0 ],
					"presentation" : 1,
					"presentation_rect" : [ 107.979164, 71.699982, 51.437462, 20.0 ],
					"style" : "",
					"text" : "8nd",
					"textcolor" : [ 0.960784, 0.827451, 0.156863, 1.0 ],
					"textjustification" : 1
				}

			}
, 			{
				"box" : 				{
					"id" : "obj-184",
					"maxclass" : "comment",
					"numinlets" : 1,
					"numoutlets" : 0,
					"patching_rect" : [ 502.833344, 735.049988, 36.0, 20.0 ],
					"presentation" : 1,
					"presentation_rect" : [ -4.614574, 71.699982, 61.364574, 20.0 ],
					"style" : "",
					"text" : "8nd",
					"textcolor" : [ 0.960784, 0.827451, 0.156863, 1.0 ],
					"textjustification" : 1
				}

			}
, 			{
				"box" : 				{
					"id" : "obj-96",
					"maxclass" : "comment",
					"numinlets" : 1,
					"numoutlets" : 0,
					"patching_rect" : [ 95.166649, 303.699982, 36.0, 20.0 ],
					"presentation" : 1,
					"presentation_rect" : [ 54.958313, 71.699982, 50.0, 20.0 ],
					"style" : "",
					"text" : "0.00",
					"textcolor" : [ 0.960784, 0.827451, 0.156863, 1.0 ],
					"textjustification" : 1
				}

			}
, 			{
				"box" : 				{
					"fontsize" : 11.0,
					"id" : "obj-231",
					"maxclass" : "comment",
					"numinlets" : 1,
					"numoutlets" : 0,
					"patching_rect" : [ 69.520752, 131.699982, 111.0, 19.0 ],
					"presentation" : 1,
					"presentation_rect" : [ 59.958313, 93.699982, 40.0, 19.0 ],
					"style" : "",
					"text" : "FDBK",
					"textcolor" : [ 0.952941, 0.564706, 0.098039, 1.0 ]
				}

			}
, 			{
				"box" : 				{
					"fontsize" : 11.0,
					"id" : "obj-232",
					"maxclass" : "comment",
					"numinlets" : 1,
					"numoutlets" : 0,
					"patching_rect" : [ 159.083344, 190.270828, 111.0, 19.0 ],
					"presentation" : 1,
					"presentation_rect" : [ 112.958313, 93.699982, 40.0, 19.0 ],
					"style" : "",
					"text" : "DLY L",
					"textcolor" : [ 0.952941, 0.564706, 0.098039, 1.0 ]
				}

			}
, 			{
				"box" : 				{
					"fontsize" : 11.0,
					"id" : "obj-233",
					"maxclass" : "comment",
					"numinlets" : 1,
					"numoutlets" : 0,
					"patching_rect" : [ 24.041588, 237.570847, 111.0, 19.0 ],
					"presentation" : 1,
					"presentation_rect" : [ 5.749998, 93.699982, 40.0, 19.0 ],
					"style" : "",
					"text" : "DLY R",
					"textcolor" : [ 0.952941, 0.564706, 0.098039, 1.0 ]
				}

			}
, 			{
				"box" : 				{
					"angle" : 270.0,
					"bordercolor" : [ 0.0, 0.0, 0.0, 1.0 ],
					"grad1" : [ 0.095481, 0.100396, 0.100293, 1.0 ],
					"grad2" : [ 0.095481, 0.100396, 0.100293, 1.0 ],
					"id" : "obj-234",
					"maxclass" : "panel",
					"mode" : 1,
					"numinlets" : 1,
					"numoutlets" : 0,
					"patching_rect" : [ 154.083359, 190.270828, 96.0, 24.0 ],
					"presentation" : 1,
					"presentation_rect" : [ 107.958313, 93.699982, 50.0, 19.0 ],
					"proportion" : 0.39,
					"rounded" : 0,
					"style" : ""
				}

			}
, 			{
				"box" : 				{
					"angle" : 270.0,
					"bordercolor" : [ 0.0, 0.0, 0.0, 1.0 ],
					"grad1" : [ 0.095481, 0.100396, 0.100293, 1.0 ],
					"grad2" : [ 0.095481, 0.100396, 0.100293, 1.0 ],
					"id" : "obj-235",
					"maxclass" : "panel",
					"mode" : 1,
					"numinlets" : 1,
					"numoutlets" : 0,
					"patching_rect" : [ 83.541588, 244.270828, 96.0, 24.0 ],
					"presentation" : 1,
					"presentation_rect" : [ 54.958313, 93.699982, 50.0, 19.0 ],
					"proportion" : 0.39,
					"rounded" : 0,
					"style" : ""
				}

			}
, 			{
				"box" : 				{
					"angle" : 270.0,
					"bordercolor" : [ 0.0, 0.0, 0.0, 1.0 ],
					"grad1" : [ 0.095481, 0.100396, 0.100293, 1.0 ],
					"grad2" : [ 0.095481, 0.100396, 0.100293, 1.0 ],
					"id" : "obj-236",
					"maxclass" : "panel",
					"mode" : 1,
					"numinlets" : 1,
					"numoutlets" : 0,
					"patching_rect" : [ 31.541588, 258.5, 96.0, 24.0 ],
					"presentation" : 1,
					"presentation_rect" : [ 0.5, 93.699982, 50.0, 19.0 ],
					"proportion" : 0.39,
					"rounded" : 0,
					"style" : ""
				}

			}
, 			{
				"box" : 				{
					"angle" : 270.0,
					"bordercolor" : [ 0.0, 0.0, 0.0, 1.0 ],
					"grad1" : [ 0.095481, 0.100396, 0.100293, 1.0 ],
					"grad2" : [ 0.095481, 0.100396, 0.100293, 1.0 ],
					"id" : "obj-237",
					"maxclass" : "panel",
					"mode" : 1,
					"numinlets" : 1,
					"numoutlets" : 0,
					"patching_rect" : [ 159.083344, 184.90416, 96.0, 24.0 ],
					"presentation" : 1,
					"presentation_rect" : [ 54.958313, 76.833328, 50.0, 14.833344 ],
					"proportion" : 0.39,
					"rounded" : 0,
					"style" : ""
				}

			}
, 			{
				"box" : 				{
					"angle" : 270.0,
					"bordercolor" : [ 0.0, 0.0, 0.0, 1.0 ],
					"grad1" : [ 0.095481, 0.100396, 0.100293, 1.0 ],
					"grad2" : [ 0.095481, 0.100396, 0.100293, 1.0 ],
					"id" : "obj-245",
					"maxclass" : "panel",
					"mode" : 1,
					"numinlets" : 1,
					"numoutlets" : 0,
					"patching_rect" : [ 154.083359, 173.404175, 96.0, 24.0 ],
					"presentation" : 1,
					"presentation_rect" : [ 107.958313, 76.833328, 50.0, 14.866653 ],
					"proportion" : 0.39,
					"rounded" : 0,
					"style" : ""
				}

			}
, 			{
				"box" : 				{
					"fontsize" : 11.0,
					"id" : "obj-247",
					"maxclass" : "comment",
					"numinlets" : 1,
					"numoutlets" : 0,
					"patching_rect" : [ 87.624947, 246.770828, 111.0, 19.0 ],
					"presentation" : 1,
					"presentation_rect" : [ 59.958313, 93.699982, 40.0, 19.0 ],
					"style" : "",
					"text" : "FDBK",
					"textcolor" : [ 0.952941, 0.564706, 0.098039, 1.0 ]
				}

			}
, 			{
				"box" : 				{
					"fontsize" : 11.0,
					"id" : "obj-248",
					"maxclass" : "comment",
					"numinlets" : 1,
					"numoutlets" : 0,
					"patching_rect" : [ 159.083344, 190.270828, 111.0, 19.0 ],
					"presentation" : 1,
					"presentation_rect" : [ 112.958313, 93.699982, 40.0, 19.0 ],
					"style" : "",
					"text" : "DLY L",
					"textcolor" : [ 0.952941, 0.564706, 0.098039, 1.0 ]
				}

			}
, 			{
				"box" : 				{
					"fontsize" : 11.0,
					"id" : "obj-249",
					"maxclass" : "comment",
					"numinlets" : 1,
					"numoutlets" : 0,
					"patching_rect" : [ 40.395775, 245.604172, 111.0, 19.0 ],
					"presentation" : 1,
					"presentation_rect" : [ 5.749998, 93.699982, 40.0, 19.0 ],
					"style" : "",
					"text" : "DLY R",
					"textcolor" : [ 0.952941, 0.564706, 0.098039, 1.0 ]
				}

			}
, 			{
				"box" : 				{
					"angle" : 270.0,
					"bordercolor" : [ 0.0, 0.0, 0.0, 1.0 ],
					"grad1" : [ 0.095481, 0.100396, 0.100293, 1.0 ],
					"grad2" : [ 0.095481, 0.100396, 0.100293, 1.0 ],
					"id" : "obj-250",
					"maxclass" : "panel",
					"mode" : 1,
					"numinlets" : 1,
					"numoutlets" : 0,
					"patching_rect" : [ 154.083359, 190.270828, 96.0, 24.0 ],
					"presentation" : 1,
					"presentation_rect" : [ 107.958313, 93.699982, 50.0, 19.0 ],
					"proportion" : 0.39,
					"rounded" : 0,
					"style" : ""
				}

			}
, 			{
				"box" : 				{
					"angle" : 270.0,
					"bordercolor" : [ 0.0, 0.0, 0.0, 1.0 ],
					"grad1" : [ 0.095481, 0.100396, 0.100293, 1.0 ],
					"grad2" : [ 0.095481, 0.100396, 0.100293, 1.0 ],
					"id" : "obj-251",
					"maxclass" : "panel",
					"mode" : 1,
					"numinlets" : 1,
					"numoutlets" : 0,
					"patching_rect" : [ 101.104088, 254.833344, 96.0, 24.0 ],
					"presentation" : 1,
					"presentation_rect" : [ 54.958313, 93.699982, 50.0, 19.0 ],
					"proportion" : 0.39,
					"rounded" : 0,
					"style" : ""
				}

			}
, 			{
				"box" : 				{
					"angle" : 270.0,
					"bordercolor" : [ 0.0, 0.0, 0.0, 1.0 ],
					"grad1" : [ 0.095481, 0.100396, 0.100293, 1.0 ],
					"grad2" : [ 0.095481, 0.100396, 0.100293, 1.0 ],
					"id" : "obj-252",
					"maxclass" : "panel",
					"mode" : 1,
					"numinlets" : 1,
					"numoutlets" : 0,
					"patching_rect" : [ 31.541588, 272.5, 96.0, 24.0 ],
					"presentation" : 1,
					"presentation_rect" : [ 0.5, 93.699982, 50.0, 19.0 ],
					"proportion" : 0.39,
					"rounded" : 0,
					"style" : ""
				}

			}
, 			{
				"box" : 				{
					"angle" : 270.0,
					"bordercolor" : [ 0.0, 0.0, 0.0, 1.0 ],
					"grad1" : [ 0.095481, 0.100396, 0.100293, 1.0 ],
					"grad2" : [ 0.095481, 0.100396, 0.100293, 1.0 ],
					"id" : "obj-253",
					"maxclass" : "panel",
					"mode" : 1,
					"numinlets" : 1,
					"numoutlets" : 0,
					"patching_rect" : [ 85.624947, 208.270828, 96.0, 24.0 ],
					"presentation" : 1,
					"presentation_rect" : [ 54.958313, 76.833328, 50.0, 14.833344 ],
					"proportion" : 0.39,
					"rounded" : 0,
					"style" : ""
				}

			}
, 			{
				"box" : 				{
					"angle" : 270.0,
					"bordercolor" : [ 0.0, 0.0, 0.0, 1.0 ],
					"grad1" : [ 0.095481, 0.100396, 0.100293, 1.0 ],
					"grad2" : [ 0.095481, 0.100396, 0.100293, 1.0 ],
					"id" : "obj-256",
					"maxclass" : "panel",
					"mode" : 1,
					"numinlets" : 1,
					"numoutlets" : 0,
					"patching_rect" : [ 24.041588, 250.104172, 96.0, 24.0 ],
					"presentation" : 1,
					"presentation_rect" : [ 0.5, 76.833328, 50.0, 14.866653 ],
					"proportion" : 0.39,
					"rounded" : 0,
					"style" : ""
				}

			}
, 			{
				"box" : 				{
					"angle" : 270.0,
					"bordercolor" : [ 0.0, 0.0, 0.0, 1.0 ],
					"grad1" : [ 0.095481, 0.100396, 0.100293, 1.0 ],
					"grad2" : [ 0.095481, 0.100396, 0.100293, 1.0 ],
					"id" : "obj-261",
					"maxclass" : "panel",
					"mode" : 1,
					"numinlets" : 1,
					"numoutlets" : 0,
					"patching_rect" : [ 154.083359, 173.404175, 96.0, 24.0 ],
					"presentation" : 1,
					"presentation_rect" : [ 107.958313, 76.833328, 50.0, 14.866653 ],
					"proportion" : 0.39,
					"rounded" : 0,
					"style" : ""
				}

			}
, 			{
				"box" : 				{
					"fontsize" : 11.0,
					"id" : "obj-263",
					"maxclass" : "comment",
					"numinlets" : 1,
					"numoutlets" : 0,
					"patching_rect" : [ 91.624947, 190.270828, 111.0, 19.0 ],
					"presentation" : 1,
					"presentation_rect" : [ 59.958313, 93.699982, 40.0, 19.0 ],
					"style" : "",
					"text" : "FDBK",
					"textcolor" : [ 0.952941, 0.564706, 0.098039, 1.0 ]
				}

			}
, 			{
				"box" : 				{
					"fontsize" : 11.0,
					"id" : "obj-264",
					"maxclass" : "comment",
					"numinlets" : 1,
					"numoutlets" : 0,
					"patching_rect" : [ 159.083344, 190.270828, 111.0, 19.0 ],
					"presentation" : 1,
					"presentation_rect" : [ 112.958313, 93.699982, 40.0, 19.0 ],
					"style" : "",
					"text" : "DLY L",
					"textcolor" : [ 0.952941, 0.564706, 0.098039, 1.0 ]
				}

			}
, 			{
				"box" : 				{
					"fontsize" : 11.0,
					"id" : "obj-265",
					"maxclass" : "comment",
					"numinlets" : 1,
					"numoutlets" : 0,
					"patching_rect" : [ 38.395779, 250.104172, 111.0, 19.0 ],
					"presentation" : 1,
					"presentation_rect" : [ 5.749998, 93.699982, 40.0, 19.0 ],
					"style" : "",
					"text" : "DLY R",
					"textcolor" : [ 0.952941, 0.564706, 0.098039, 1.0 ]
				}

			}
, 			{
				"box" : 				{
					"angle" : 270.0,
					"bordercolor" : [ 0.0, 0.0, 0.0, 1.0 ],
					"grad1" : [ 0.095481, 0.100396, 0.100293, 1.0 ],
					"grad2" : [ 0.095481, 0.100396, 0.100293, 1.0 ],
					"id" : "obj-266",
					"maxclass" : "panel",
					"mode" : 1,
					"numinlets" : 1,
					"numoutlets" : 0,
					"patching_rect" : [ 154.083359, 190.270828, 96.0, 24.0 ],
					"presentation" : 1,
					"presentation_rect" : [ 107.958313, 93.699982, 50.0, 19.0 ],
					"proportion" : 0.39,
					"rounded" : 0,
					"style" : ""
				}

			}
, 			{
				"box" : 				{
					"angle" : 270.0,
					"bordercolor" : [ 0.0, 0.0, 0.0, 1.0 ],
					"grad1" : [ 0.095481, 0.100396, 0.100293, 1.0 ],
					"grad2" : [ 0.095481, 0.100396, 0.100293, 1.0 ],
					"id" : "obj-267",
					"maxclass" : "panel",
					"mode" : 1,
					"numinlets" : 1,
					"numoutlets" : 0,
					"patching_rect" : [ 86.624947, 190.270828, 96.0, 24.0 ],
					"presentation" : 1,
					"presentation_rect" : [ 54.958313, 93.699982, 50.0, 19.0 ],
					"proportion" : 0.39,
					"rounded" : 0,
					"style" : ""
				}

			}
, 			{
				"box" : 				{
					"angle" : 270.0,
					"bordercolor" : [ 0.0, 0.0, 0.0, 1.0 ],
					"grad1" : [ 0.095481, 0.100396, 0.100293, 1.0 ],
					"grad2" : [ 0.095481, 0.100396, 0.100293, 1.0 ],
					"id" : "obj-268",
					"maxclass" : "panel",
					"mode" : 1,
					"numinlets" : 1,
					"numoutlets" : 0,
					"patching_rect" : [ 24.041588, 258.5, 110.833344, 24.0 ],
					"presentation" : 1,
					"presentation_rect" : [ 0.5, 93.699982, 50.0, 19.0 ],
					"proportion" : 0.39,
					"rounded" : 0,
					"style" : ""
				}

			}
, 			{
				"box" : 				{
					"angle" : 270.0,
					"bordercolor" : [ 0.0, 0.0, 0.0, 1.0 ],
					"grad1" : [ 0.095481, 0.100396, 0.100293, 1.0 ],
					"grad2" : [ 0.095481, 0.100396, 0.100293, 1.0 ],
					"id" : "obj-269",
					"maxclass" : "panel",
					"mode" : 1,
					"numinlets" : 1,
					"numoutlets" : 0,
					"patching_rect" : [ 98.083359, 131.699982, 96.0, 24.0 ],
					"presentation" : 1,
					"presentation_rect" : [ 54.958313, 76.833328, 50.0, 14.833344 ],
					"proportion" : 0.39,
					"rounded" : 0,
					"style" : ""
				}

			}
, 			{
				"box" : 				{
					"angle" : 270.0,
					"bordercolor" : [ 0.0, 0.0, 0.0, 1.0 ],
					"grad1" : [ 0.095481, 0.100396, 0.100293, 1.0 ],
					"grad2" : [ 0.095481, 0.100396, 0.100293, 1.0 ],
					"id" : "obj-272",
					"maxclass" : "panel",
					"mode" : 1,
					"numinlets" : 1,
					"numoutlets" : 0,
					"patching_rect" : [ 51.791588, 232.404175, 96.0, 24.0 ],
					"presentation" : 1,
					"presentation_rect" : [ 0.5, 76.833328, 50.0, 14.866653 ],
					"proportion" : 0.39,
					"rounded" : 0,
					"style" : ""
				}

			}
, 			{
				"box" : 				{
					"angle" : 270.0,
					"bordercolor" : [ 0.0, 0.0, 0.0, 1.0 ],
					"grad1" : [ 0.095481, 0.100396, 0.100293, 1.0 ],
					"grad2" : [ 0.095481, 0.100396, 0.100293, 1.0 ],
					"id" : "obj-277",
					"maxclass" : "panel",
					"mode" : 1,
					"numinlets" : 1,
					"numoutlets" : 0,
					"patching_rect" : [ 154.083359, 173.404175, 96.0, 24.0 ],
					"presentation" : 1,
					"presentation_rect" : [ 107.958313, 76.833328, 50.0, 14.866653 ],
					"proportion" : 0.39,
					"rounded" : 0,
					"style" : ""
				}

			}
, 			{
				"box" : 				{
					"fontsize" : 11.0,
					"id" : "obj-279",
					"maxclass" : "comment",
					"numinlets" : 1,
					"numoutlets" : 0,
					"patching_rect" : [ 91.624947, 190.270828, 111.0, 19.0 ],
					"presentation" : 1,
					"presentation_rect" : [ 59.958313, 93.699982, 40.0, 19.0 ],
					"style" : "",
					"text" : "FDBK",
					"textcolor" : [ 0.952941, 0.564706, 0.098039, 1.0 ]
				}

			}
, 			{
				"box" : 				{
					"fontsize" : 11.0,
					"id" : "obj-280",
					"maxclass" : "comment",
					"numinlets" : 1,
					"numoutlets" : 0,
					"patching_rect" : [ 159.083344, 190.270828, 111.0, 19.0 ],
					"presentation" : 1,
					"presentation_rect" : [ 112.958313, 93.699982, 40.0, 19.0 ],
					"style" : "",
					"text" : "DLY L",
					"textcolor" : [ 0.952941, 0.564706, 0.098039, 1.0 ]
				}

			}
, 			{
				"box" : 				{
					"fontsize" : 11.0,
					"id" : "obj-281",
					"maxclass" : "comment",
					"numinlets" : 1,
					"numoutlets" : 0,
					"patching_rect" : [ 29.291584, 258.5, 125.833344, 19.0 ],
					"presentation" : 1,
					"presentation_rect" : [ 5.749998, 93.699982, 40.0, 19.0 ],
					"style" : "",
					"text" : "DLY R",
					"textcolor" : [ 0.952941, 0.564706, 0.098039, 1.0 ]
				}

			}
, 			{
				"box" : 				{
					"angle" : 270.0,
					"bordercolor" : [ 0.0, 0.0, 0.0, 1.0 ],
					"grad1" : [ 0.095481, 0.100396, 0.100293, 1.0 ],
					"grad2" : [ 0.095481, 0.100396, 0.100293, 1.0 ],
					"id" : "obj-282",
					"maxclass" : "panel",
					"mode" : 1,
					"numinlets" : 1,
					"numoutlets" : 0,
					"patching_rect" : [ 154.083359, 190.270828, 96.0, 24.0 ],
					"presentation" : 1,
					"presentation_rect" : [ 107.958313, 93.699982, 50.0, 19.0 ],
					"proportion" : 0.39,
					"rounded" : 0,
					"style" : ""
				}

			}
, 			{
				"box" : 				{
					"angle" : 270.0,
					"bordercolor" : [ 0.0, 0.0, 0.0, 1.0 ],
					"grad1" : [ 0.095481, 0.100396, 0.100293, 1.0 ],
					"grad2" : [ 0.095481, 0.100396, 0.100293, 1.0 ],
					"id" : "obj-283",
					"maxclass" : "panel",
					"mode" : 1,
					"numinlets" : 1,
					"numoutlets" : 0,
					"patching_rect" : [ 86.624947, 190.270828, 96.0, 24.0 ],
					"presentation" : 1,
					"presentation_rect" : [ 54.958313, 93.699982, 50.0, 19.0 ],
					"proportion" : 0.39,
					"rounded" : 0,
					"style" : ""
				}

			}
, 			{
				"box" : 				{
					"angle" : 270.0,
					"bordercolor" : [ 0.0, 0.0, 0.0, 1.0 ],
					"grad1" : [ 0.095481, 0.100396, 0.100293, 1.0 ],
					"grad2" : [ 0.095481, 0.100396, 0.100293, 1.0 ],
					"id" : "obj-284",
					"maxclass" : "panel",
					"mode" : 1,
					"numinlets" : 1,
					"numoutlets" : 0,
					"patching_rect" : [ 24.041588, 258.5, 110.833344, 24.0 ],
					"presentation" : 1,
					"presentation_rect" : [ 0.5, 93.699982, 50.0, 19.0 ],
					"proportion" : 0.39,
					"rounded" : 0,
					"style" : ""
				}

			}
, 			{
				"box" : 				{
					"angle" : 270.0,
					"bordercolor" : [ 0.0, 0.0, 0.0, 1.0 ],
					"grad1" : [ 0.095481, 0.100396, 0.100293, 1.0 ],
					"grad2" : [ 0.095481, 0.100396, 0.100293, 1.0 ],
					"id" : "obj-285",
					"maxclass" : "panel",
					"mode" : 1,
					"numinlets" : 1,
					"numoutlets" : 0,
					"patching_rect" : [ 114.75, 123.199982, 96.0, 24.0 ],
					"presentation" : 1,
					"presentation_rect" : [ 54.958313, 76.833328, 50.0, 14.833344 ],
					"proportion" : 0.39,
					"rounded" : 0,
					"style" : ""
				}

			}
, 			{
				"box" : 				{
					"fontsize" : 11.0,
					"id" : "obj-288",
					"maxclass" : "comment",
					"numinlets" : 1,
					"numoutlets" : 0,
					"patching_rect" : [ 38.249886, 272.5, 113.833344, 19.0 ],
					"presentation" : 1,
					"presentation_rect" : [ 22.854189, 115.699982, 36.0, 19.0 ],
					"style" : "",
					"text" : "LINK",
					"textcolor" : [ 0.952941, 0.564706, 0.098039, 1.0 ]
				}

			}
, 			{
				"box" : 				{
					"angle" : 270.0,
					"bordercolor" : [ 0.0, 0.0, 0.0, 1.0 ],
					"grad1" : [ 0.095481, 0.100396, 0.100293, 1.0 ],
					"grad2" : [ 0.095481, 0.100396, 0.100293, 1.0 ],
					"id" : "obj-290",
					"maxclass" : "panel",
					"mode" : 1,
					"numinlets" : 1,
					"numoutlets" : 0,
					"patching_rect" : [ 61.541588, 209.270828, 96.0, 24.0 ],
					"presentation" : 1,
					"presentation_rect" : [ 0.5, 76.833328, 50.0, 14.866653 ],
					"proportion" : 0.39,
					"rounded" : 0,
					"style" : ""
				}

			}
, 			{
				"box" : 				{
					"fontsize" : 11.0,
					"id" : "obj-296",
					"maxclass" : "comment",
					"numinlets" : 1,
					"numoutlets" : 0,
					"patching_rect" : [ 95.729149, 112.699982, 111.0, 19.0 ],
					"presentation" : 1,
					"presentation_rect" : [ 95.708298, 115.699982, 41.0, 19.0 ],
					"style" : "",
					"text" : "SYNC",
					"textcolor" : [ 0.952941, 0.564706, 0.098039, 1.0 ]
				}

			}
, 			{
				"box" : 				{
					"angle" : 270.0,
					"bordercolor" : [ 0.0, 0.0, 0.0, 1.0 ],
					"grad1" : [ 0.095481, 0.100396, 0.100293, 1.0 ],
					"grad2" : [ 0.095481, 0.100396, 0.100293, 1.0 ],
					"id" : "obj-297",
					"maxclass" : "panel",
					"mode" : 1,
					"numinlets" : 1,
					"numoutlets" : 0,
					"patching_rect" : [ 6.916546, 252.500015, 110.833344, 24.0 ],
					"presentation" : 1,
					"presentation_rect" : [ 0.479149, 114.699982, 160.104156, 20.0 ],
					"proportion" : 0.39,
					"rounded" : 0,
					"style" : ""
				}

			}
, 			{
				"box" : 				{
					"angle" : 270.0,
					"bordercolor" : [ 0.0, 0.0, 0.0, 1.0 ],
					"grad1" : [ 0.095481, 0.100396, 0.100293, 1.0 ],
					"grad2" : [ 0.095481, 0.100396, 0.100293, 1.0 ],
					"id" : "obj-298",
					"maxclass" : "panel",
					"mode" : 1,
					"numinlets" : 1,
					"numoutlets" : 0,
					"patching_rect" : [ 154.083359, 173.404175, 96.0, 24.0 ],
					"presentation" : 1,
					"presentation_rect" : [ 107.958313, 76.833328, 50.0, 14.866653 ],
					"proportion" : 0.39,
					"rounded" : 0,
					"style" : ""
				}

			}
, 			{
				"box" : 				{
					"id" : "obj-198",
					"maxclass" : "comment",
					"numinlets" : 1,
					"numoutlets" : 0,
					"patching_rect" : [ 61.541588, 199.770828, 36.0, 20.0 ],
					"presentation" : 1,
					"presentation_rect" : [ 54.979164, 71.699982, 52.0, 20.0 ],
					"style" : "",
					"text" : "0.00",
					"textcolor" : [ 0.960784, 0.827451, 0.156863, 1.0 ],
					"textjustification" : 1
				}

			}
, 			{
				"box" : 				{
					"fontsize" : 11.0,
					"id" : "obj-199",
					"maxclass" : "comment",
					"numinlets" : 1,
					"numoutlets" : 0,
					"patching_rect" : [ 90.624947, 191.270828, 111.0, 19.0 ],
					"presentation" : 1,
					"presentation_rect" : [ 59.979164, 93.699982, 40.0, 19.0 ],
					"style" : "",
					"text" : "FDBK",
					"textcolor" : [ 0.952941, 0.564706, 0.098039, 1.0 ]
				}

			}
, 			{
				"box" : 				{
					"fontsize" : 11.0,
					"id" : "obj-200",
					"maxclass" : "comment",
					"numinlets" : 1,
					"numoutlets" : 0,
					"patching_rect" : [ 158.083344, 191.270828, 111.0, 19.0 ],
					"presentation" : 1,
					"presentation_rect" : [ 112.979164, 93.699982, 40.0, 19.0 ],
					"style" : "",
					"text" : "DLY L",
					"textcolor" : [ 0.952941, 0.564706, 0.098039, 1.0 ]
				}

			}
, 			{
				"box" : 				{
					"fontsize" : 11.0,
					"id" : "obj-201",
					"maxclass" : "comment",
					"numinlets" : 1,
					"numoutlets" : 0,
					"patching_rect" : [ 28.291584, 259.5, 125.833344, 19.0 ],
					"presentation" : 1,
					"presentation_rect" : [ 5.770849, 93.699982, 40.0, 19.0 ],
					"style" : "",
					"text" : "DLY R",
					"textcolor" : [ 0.952941, 0.564706, 0.098039, 1.0 ]
				}

			}
, 			{
				"box" : 				{
					"angle" : 270.0,
					"bordercolor" : [ 0.0, 0.0, 0.0, 1.0 ],
					"grad1" : [ 0.095481, 0.100396, 0.100293, 1.0 ],
					"grad2" : [ 0.095481, 0.100396, 0.100293, 1.0 ],
					"id" : "obj-202",
					"maxclass" : "panel",
					"mode" : 1,
					"numinlets" : 1,
					"numoutlets" : 0,
					"patching_rect" : [ 153.083359, 191.270828, 96.0, 24.0 ],
					"presentation" : 1,
					"presentation_rect" : [ 107.979164, 93.699982, 50.0, 19.0 ],
					"proportion" : 0.39,
					"rounded" : 0,
					"style" : ""
				}

			}
, 			{
				"box" : 				{
					"angle" : 270.0,
					"bordercolor" : [ 0.0, 0.0, 0.0, 1.0 ],
					"grad1" : [ 0.095481, 0.100396, 0.100293, 1.0 ],
					"grad2" : [ 0.095481, 0.100396, 0.100293, 1.0 ],
					"id" : "obj-203",
					"maxclass" : "panel",
					"mode" : 1,
					"numinlets" : 1,
					"numoutlets" : 0,
					"patching_rect" : [ 85.624947, 191.270828, 96.0, 24.0 ],
					"presentation" : 1,
					"presentation_rect" : [ 54.979164, 93.699982, 50.0, 19.0 ],
					"proportion" : 0.39,
					"rounded" : 0,
					"style" : ""
				}

			}
, 			{
				"box" : 				{
					"angle" : 270.0,
					"bordercolor" : [ 0.0, 0.0, 0.0, 1.0 ],
					"grad1" : [ 0.095481, 0.100396, 0.100293, 1.0 ],
					"grad2" : [ 0.095481, 0.100396, 0.100293, 1.0 ],
					"id" : "obj-204",
					"maxclass" : "panel",
					"mode" : 1,
					"numinlets" : 1,
					"numoutlets" : 0,
					"patching_rect" : [ 23.041588, 259.5, 110.833344, 24.0 ],
					"presentation" : 1,
					"presentation_rect" : [ 0.520851, 93.699982, 50.0, 19.0 ],
					"proportion" : 0.39,
					"rounded" : 0,
					"style" : ""
				}

			}
, 			{
				"box" : 				{
					"angle" : 270.0,
					"bordercolor" : [ 0.0, 0.0, 0.0, 1.0 ],
					"grad1" : [ 0.095481, 0.100396, 0.100293, 1.0 ],
					"grad2" : [ 0.095481, 0.100396, 0.100293, 1.0 ],
					"id" : "obj-205",
					"maxclass" : "panel",
					"mode" : 1,
					"numinlets" : 1,
					"numoutlets" : 0,
					"patching_rect" : [ 85.624947, 227.270828, 96.0, 24.0 ],
					"presentation" : 1,
					"presentation_rect" : [ 54.979164, 76.833328, 50.0, 14.833344 ],
					"proportion" : 0.39,
					"rounded" : 0,
					"style" : ""
				}

			}
, 			{
				"box" : 				{
					"angle" : 270.0,
					"bordercolor" : [ 0.0, 0.0, 0.0, 1.0 ],
					"grad1" : [ 0.095481, 0.100396, 0.100293, 1.0 ],
					"grad2" : [ 0.095481, 0.100396, 0.100293, 1.0 ],
					"id" : "obj-208",
					"maxclass" : "panel",
					"mode" : 1,
					"numinlets" : 1,
					"numoutlets" : 0,
					"patching_rect" : [ 23.416546, 300.633362, 110.833344, 24.0 ],
					"presentation" : 1,
					"presentation_rect" : [ 0.520851, 76.833328, 50.0, 14.866653 ],
					"proportion" : 0.39,
					"rounded" : 0,
					"style" : ""
				}

			}
, 			{
				"box" : 				{
					"angle" : 270.0,
					"bordercolor" : [ 0.0, 0.0, 0.0, 1.0 ],
					"grad1" : [ 0.095481, 0.100396, 0.100293, 1.0 ],
					"grad2" : [ 0.095481, 0.100396, 0.100293, 1.0 ],
					"id" : "obj-213",
					"maxclass" : "panel",
					"mode" : 1,
					"numinlets" : 1,
					"numoutlets" : 0,
					"patching_rect" : [ 153.083359, 174.404175, 96.0, 24.0 ],
					"presentation" : 1,
					"presentation_rect" : [ 107.979164, 76.833328, 50.0, 14.866653 ],
					"proportion" : 0.39,
					"rounded" : 0,
					"style" : ""
				}

			}
, 			{
				"box" : 				{
					"fontsize" : 11.0,
					"id" : "obj-215",
					"maxclass" : "comment",
					"numinlets" : 1,
					"numoutlets" : 0,
					"patching_rect" : [ 90.624947, 191.270828, 111.0, 19.0 ],
					"presentation" : 1,
					"presentation_rect" : [ 59.979164, 93.699982, 40.0, 19.0 ],
					"style" : "",
					"text" : "FDBK",
					"textcolor" : [ 0.952941, 0.564706, 0.098039, 1.0 ]
				}

			}
, 			{
				"box" : 				{
					"fontsize" : 11.0,
					"id" : "obj-216",
					"maxclass" : "comment",
					"numinlets" : 1,
					"numoutlets" : 0,
					"patching_rect" : [ 158.083344, 191.270828, 111.0, 19.0 ],
					"presentation" : 1,
					"presentation_rect" : [ 112.979164, 93.699982, 40.0, 19.0 ],
					"style" : "",
					"text" : "DLY L",
					"textcolor" : [ 0.952941, 0.564706, 0.098039, 1.0 ]
				}

			}
, 			{
				"box" : 				{
					"fontsize" : 11.0,
					"id" : "obj-217",
					"maxclass" : "comment",
					"numinlets" : 1,
					"numoutlets" : 0,
					"patching_rect" : [ 28.291584, 259.5, 125.833344, 19.0 ],
					"presentation" : 1,
					"presentation_rect" : [ 5.770849, 93.699982, 40.0, 19.0 ],
					"style" : "",
					"text" : "DLY R",
					"textcolor" : [ 0.952941, 0.564706, 0.098039, 1.0 ]
				}

			}
, 			{
				"box" : 				{
					"angle" : 270.0,
					"bordercolor" : [ 0.0, 0.0, 0.0, 1.0 ],
					"grad1" : [ 0.095481, 0.100396, 0.100293, 1.0 ],
					"grad2" : [ 0.095481, 0.100396, 0.100293, 1.0 ],
					"id" : "obj-218",
					"maxclass" : "panel",
					"mode" : 1,
					"numinlets" : 1,
					"numoutlets" : 0,
					"patching_rect" : [ 153.083359, 191.270828, 96.0, 24.0 ],
					"presentation" : 1,
					"presentation_rect" : [ 107.979164, 93.699982, 50.0, 19.0 ],
					"proportion" : 0.39,
					"rounded" : 0,
					"style" : ""
				}

			}
, 			{
				"box" : 				{
					"angle" : 270.0,
					"bordercolor" : [ 0.0, 0.0, 0.0, 1.0 ],
					"grad1" : [ 0.095481, 0.100396, 0.100293, 1.0 ],
					"grad2" : [ 0.095481, 0.100396, 0.100293, 1.0 ],
					"id" : "obj-219",
					"maxclass" : "panel",
					"mode" : 1,
					"numinlets" : 1,
					"numoutlets" : 0,
					"patching_rect" : [ 85.624947, 191.270828, 96.0, 24.0 ],
					"presentation" : 1,
					"presentation_rect" : [ 54.979164, 93.699982, 50.0, 19.0 ],
					"proportion" : 0.39,
					"rounded" : 0,
					"style" : ""
				}

			}
, 			{
				"box" : 				{
					"angle" : 270.0,
					"bordercolor" : [ 0.0, 0.0, 0.0, 1.0 ],
					"grad1" : [ 0.095481, 0.100396, 0.100293, 1.0 ],
					"grad2" : [ 0.095481, 0.100396, 0.100293, 1.0 ],
					"id" : "obj-220",
					"maxclass" : "panel",
					"mode" : 1,
					"numinlets" : 1,
					"numoutlets" : 0,
					"patching_rect" : [ 23.041588, 259.5, 110.833344, 24.0 ],
					"presentation" : 1,
					"presentation_rect" : [ 0.520851, 93.699982, 50.0, 19.0 ],
					"proportion" : 0.39,
					"rounded" : 0,
					"style" : ""
				}

			}
, 			{
				"box" : 				{
					"angle" : 270.0,
					"bordercolor" : [ 0.0, 0.0, 0.0, 1.0 ],
					"grad1" : [ 0.095481, 0.100396, 0.100293, 1.0 ],
					"grad2" : [ 0.095481, 0.100396, 0.100293, 1.0 ],
					"id" : "obj-221",
					"maxclass" : "panel",
					"mode" : 1,
					"numinlets" : 1,
					"numoutlets" : 0,
					"patching_rect" : [ 71.083359, 190.270828, 96.0, 24.0 ],
					"presentation" : 1,
					"presentation_rect" : [ 54.979164, 76.833328, 50.0, 14.833344 ],
					"proportion" : 0.39,
					"rounded" : 0,
					"style" : ""
				}

			}
, 			{
				"box" : 				{
					"angle" : 270.0,
					"bordercolor" : [ 0.0, 0.0, 0.0, 1.0 ],
					"grad1" : [ 0.095481, 0.100396, 0.100293, 1.0 ],
					"grad2" : [ 0.095481, 0.100396, 0.100293, 1.0 ],
					"id" : "obj-224",
					"maxclass" : "panel",
					"mode" : 1,
					"numinlets" : 1,
					"numoutlets" : 0,
					"patching_rect" : [ 30.270737, 295.5, 110.833344, 24.0 ],
					"presentation" : 1,
					"presentation_rect" : [ 0.520851, 76.833328, 50.0, 14.866653 ],
					"proportion" : 0.39,
					"rounded" : 0,
					"style" : ""
				}

			}
, 			{
				"box" : 				{
					"angle" : 270.0,
					"bordercolor" : [ 0.0, 0.0, 0.0, 1.0 ],
					"grad1" : [ 0.095481, 0.100396, 0.100293, 1.0 ],
					"grad2" : [ 0.095481, 0.100396, 0.100293, 1.0 ],
					"id" : "obj-229",
					"maxclass" : "panel",
					"mode" : 1,
					"numinlets" : 1,
					"numoutlets" : 0,
					"patching_rect" : [ 153.083359, 174.404175, 96.0, 24.0 ],
					"presentation" : 1,
					"presentation_rect" : [ 107.979164, 76.833328, 50.0, 14.866653 ],
					"proportion" : 0.39,
					"rounded" : 0,
					"style" : ""
				}

			}
, 			{
				"box" : 				{
					"fontsize" : 11.0,
					"id" : "obj-176",
					"maxclass" : "comment",
					"numinlets" : 1,
					"numoutlets" : 0,
					"patching_rect" : [ 92.624947, 191.270828, 111.0, 19.0 ],
					"presentation" : 1,
					"presentation_rect" : [ 59.979164, 93.699982, 40.0, 19.0 ],
					"style" : "",
					"text" : "FDBK",
					"textcolor" : [ 0.952941, 0.564706, 0.098039, 1.0 ]
				}

			}
, 			{
				"box" : 				{
					"fontsize" : 11.0,
					"id" : "obj-180",
					"maxclass" : "comment",
					"numinlets" : 1,
					"numoutlets" : 0,
					"patching_rect" : [ 160.083344, 191.270828, 111.0, 19.0 ],
					"presentation" : 1,
					"presentation_rect" : [ 112.979164, 93.699982, 40.0, 19.0 ],
					"style" : "",
					"text" : "DLY L",
					"textcolor" : [ 0.952941, 0.564706, 0.098039, 1.0 ]
				}

			}
, 			{
				"box" : 				{
					"fontsize" : 11.0,
					"id" : "obj-181",
					"maxclass" : "comment",
					"numinlets" : 1,
					"numoutlets" : 0,
					"patching_rect" : [ 30.291584, 259.5, 125.833344, 19.0 ],
					"presentation" : 1,
					"presentation_rect" : [ 5.770849, 93.699982, 40.0, 19.0 ],
					"style" : "",
					"text" : "DLY R",
					"textcolor" : [ 0.952941, 0.564706, 0.098039, 1.0 ]
				}

			}
, 			{
				"box" : 				{
					"angle" : 270.0,
					"bordercolor" : [ 0.0, 0.0, 0.0, 1.0 ],
					"grad1" : [ 0.095481, 0.100396, 0.100293, 1.0 ],
					"grad2" : [ 0.095481, 0.100396, 0.100293, 1.0 ],
					"id" : "obj-182",
					"maxclass" : "panel",
					"mode" : 1,
					"numinlets" : 1,
					"numoutlets" : 0,
					"patching_rect" : [ 155.083359, 191.270828, 96.0, 24.0 ],
					"presentation" : 1,
					"presentation_rect" : [ 107.979164, 93.699982, 50.0, 19.0 ],
					"proportion" : 0.39,
					"rounded" : 0,
					"style" : ""
				}

			}
, 			{
				"box" : 				{
					"angle" : 270.0,
					"bordercolor" : [ 0.0, 0.0, 0.0, 1.0 ],
					"grad1" : [ 0.095481, 0.100396, 0.100293, 1.0 ],
					"grad2" : [ 0.095481, 0.100396, 0.100293, 1.0 ],
					"id" : "obj-185",
					"maxclass" : "panel",
					"mode" : 1,
					"numinlets" : 1,
					"numoutlets" : 0,
					"patching_rect" : [ 87.624947, 191.270828, 96.0, 24.0 ],
					"presentation" : 1,
					"presentation_rect" : [ 54.979164, 93.699982, 50.0, 19.0 ],
					"proportion" : 0.39,
					"rounded" : 0,
					"style" : ""
				}

			}
, 			{
				"box" : 				{
					"angle" : 270.0,
					"bordercolor" : [ 0.0, 0.0, 0.0, 1.0 ],
					"grad1" : [ 0.095481, 0.100396, 0.100293, 1.0 ],
					"grad2" : [ 0.095481, 0.100396, 0.100293, 1.0 ],
					"id" : "obj-186",
					"maxclass" : "panel",
					"mode" : 1,
					"numinlets" : 1,
					"numoutlets" : 0,
					"patching_rect" : [ 25.041588, 259.5, 110.833344, 24.0 ],
					"presentation" : 1,
					"presentation_rect" : [ 0.520851, 93.699982, 50.0, 19.0 ],
					"proportion" : 0.39,
					"rounded" : 0,
					"style" : ""
				}

			}
, 			{
				"box" : 				{
					"angle" : 270.0,
					"bordercolor" : [ 0.0, 0.0, 0.0, 1.0 ],
					"grad1" : [ 0.095481, 0.100396, 0.100293, 1.0 ],
					"grad2" : [ 0.095481, 0.100396, 0.100293, 1.0 ],
					"id" : "obj-187",
					"maxclass" : "panel",
					"mode" : 1,
					"numinlets" : 1,
					"numoutlets" : 0,
					"patching_rect" : [ 69.0, 190.270828, 96.0, 24.0 ],
					"presentation" : 1,
					"presentation_rect" : [ 54.979164, 76.833328, 50.0, 14.833344 ],
					"proportion" : 0.39,
					"rounded" : 0,
					"style" : ""
				}

			}
, 			{
				"box" : 				{
					"angle" : 270.0,
					"bordercolor" : [ 0.0, 0.0, 0.0, 1.0 ],
					"grad1" : [ 0.095481, 0.100396, 0.100293, 1.0 ],
					"grad2" : [ 0.095481, 0.100396, 0.100293, 1.0 ],
					"id" : "obj-190",
					"maxclass" : "panel",
					"mode" : 1,
					"numinlets" : 1,
					"numoutlets" : 0,
					"patching_rect" : [ 30.270737, 300.633362, 110.833344, 24.0 ],
					"presentation" : 1,
					"presentation_rect" : [ 0.520851, 76.833328, 50.0, 14.866653 ],
					"proportion" : 0.39,
					"rounded" : 0,
					"style" : ""
				}

			}
, 			{
				"box" : 				{
					"angle" : 270.0,
					"bordercolor" : [ 0.0, 0.0, 0.0, 1.0 ],
					"grad1" : [ 0.095481, 0.100396, 0.100293, 1.0 ],
					"grad2" : [ 0.095481, 0.100396, 0.100293, 1.0 ],
					"id" : "obj-197",
					"maxclass" : "panel",
					"mode" : 1,
					"numinlets" : 1,
					"numoutlets" : 0,
					"patching_rect" : [ 155.083359, 174.404175, 96.0, 24.0 ],
					"presentation" : 1,
					"presentation_rect" : [ 107.979164, 76.833328, 50.0, 14.866653 ],
					"proportion" : 0.39,
					"rounded" : 0,
					"style" : ""
				}

			}
, 			{
				"box" : 				{
					"id" : "obj-174",
					"maxclass" : "newobj",
					"numinlets" : 1,
					"numoutlets" : 1,
					"outlettype" : [ "" ],
					"patching_rect" : [ 884.0, 215.0, 72.0, 22.0 ],
					"style" : "",
					"text" : "loadmess 4"
				}

			}
, 			{
				"box" : 				{
					"id" : "obj-173",
					"maxclass" : "newobj",
					"numinlets" : 1,
					"numoutlets" : 1,
					"outlettype" : [ "" ],
					"patching_rect" : [ 1043.0, 233.0, 79.0, 22.0 ],
					"style" : "",
					"text" : "loadmess 50"
				}

			}
, 			{
				"box" : 				{
					"id" : "obj-172",
					"maxclass" : "newobj",
					"numinlets" : 1,
					"numoutlets" : 1,
					"outlettype" : [ "" ],
					"patching_rect" : [ 922.0, 51.0, 72.0, 22.0 ],
					"style" : "",
					"text" : "loadmess 0"
				}

			}
, 			{
				"box" : 				{
					"id" : "obj-171",
					"maxclass" : "newobj",
					"numinlets" : 1,
					"numoutlets" : 1,
					"outlettype" : [ "" ],
					"patching_rect" : [ 791.666626, 147.0, 76.0, 22.0 ],
					"style" : "",
					"text" : "loadmess -5"
				}

			}
, 			{
				"box" : 				{
					"id" : "obj-170",
					"maxclass" : "newobj",
					"numinlets" : 1,
					"numoutlets" : 0,
					"patching_rect" : [ 732.833313, 224.562515, 91.0, 22.0 ],
					"style" : "",
					"text" : "s delay_drywet"
				}

			}
, 			{
				"box" : 				{
					"id" : "obj-169",
					"maxclass" : "newobj",
					"numinlets" : 1,
					"numoutlets" : 0,
					"patching_rect" : [ 816.666748, 282.5, 115.0, 22.0 ],
					"style" : "",
					"text" : "s delay_comp_ratio"
				}

			}
, 			{
				"box" : 				{
					"id" : "obj-168",
					"maxclass" : "newobj",
					"numinlets" : 1,
					"numoutlets" : 0,
					"patching_rect" : [ 931.666748, 288.0, 114.0, 22.0 ],
					"style" : "",
					"text" : "s delay_comp_time"
				}

			}
, 			{
				"box" : 				{
					"id" : "obj-167",
					"maxclass" : "newobj",
					"numinlets" : 1,
					"numoutlets" : 0,
					"patching_rect" : [ 922.0, 192.0, 79.0, 22.0 ],
					"style" : "",
					"text" : "s delay_path"
				}

			}
, 			{
				"box" : 				{
					"id" : "obj-166",
					"maxclass" : "newobj",
					"numinlets" : 1,
					"numoutlets" : 0,
					"patching_rect" : [ 259.0, 562.0, 104.0, 22.0 ],
					"style" : "",
					"text" : "s delay_feedback"
				}

			}
, 			{
				"box" : 				{
					"activebgcolor" : [ 0.095481, 0.100396, 0.100293, 1.0 ],
					"activeslidercolor" : [ 0.870588, 0.415686, 0.062745, 1.0 ],
					"appearance" : 2,
					"bordercolor" : [ 0.095481, 0.100396, 0.100293, 1.0 ],
					"focusbordercolor" : [ 0.095481, 0.100396, 0.100293, 1.0 ],
					"fontsize" : 12.0,
					"id" : "obj-155",
					"maxclass" : "live.numbox",
					"numinlets" : 1,
					"numoutlets" : 2,
					"outlettype" : [ "", "float" ],
					"parameter_enable" : 1,
					"patching_rect" : [ 872.500122, 258.333344, 43.0, 17.0 ],
					"presentation" : 1,
					"presentation_rect" : [ 94.499985, 247.666672, 67.333328, 17.0 ],
					"saved_attribute_attributes" : 					{
						"valueof" : 						{
							"parameter_longname" : "live.numbox[48]",
							"parameter_shortname" : "live.numbox",
							"parameter_type" : 0,
							"parameter_mmax" : 10.0,
							"parameter_unitstyle" : 1
						}

					}
,
					"textcolor" : [ 0.960784, 0.827451, 0.156863, 1.0 ],
					"varname" : "delay_cmp_ratio"
				}

			}
, 			{
				"box" : 				{
					"angle" : 270.0,
					"bordercolor" : [ 0.0, 0.0, 0.0, 1.0 ],
					"grad1" : [ 0.095481, 0.100396, 0.100293, 1.0 ],
					"grad2" : [ 0.095481, 0.100396, 0.100293, 1.0 ],
					"id" : "obj-156",
					"maxclass" : "panel",
					"mode" : 1,
					"numinlets" : 1,
					"numoutlets" : 0,
					"patching_rect" : [ 95.166649, 244.270828, 96.0, 24.0 ],
					"presentation" : 1,
					"presentation_rect" : [ 94.499985, 245.166672, 67.333328, 22.562511 ],
					"proportion" : 0.39,
					"rounded" : 0,
					"style" : ""
				}

			}
, 			{
				"box" : 				{
					"fontname" : "Arial",
					"id" : "obj-158",
					"linecount" : 2,
					"maxclass" : "comment",
					"numinlets" : 1,
					"numoutlets" : 0,
					"patching_rect" : [ 6.416665, 245.604172, 67.0, 34.0 ],
					"presentation" : 1,
					"presentation_rect" : [ 0.999998, 246.500015, 83.75, 20.0 ],
					"style" : "",
					"text" : "COMP RATIO",
					"textcolor" : [ 0.65098, 0.666667, 0.662745, 1.0 ]
				}

			}
, 			{
				"box" : 				{
					"angle" : 270.0,
					"bordercolor" : [ 0.0, 0.0, 0.0, 1.0 ],
					"grad1" : [ 0.095481, 0.100396, 0.100293, 1.0 ],
					"grad2" : [ 0.095481, 0.100396, 0.100293, 1.0 ],
					"id" : "obj-159",
					"maxclass" : "panel",
					"mode" : 1,
					"numinlets" : 1,
					"numoutlets" : 0,
					"patching_rect" : [ 1.666665, 244.270828, 96.0, 24.0 ],
					"presentation" : 1,
					"presentation_rect" : [ 0.999998, 245.166672, 88.5, 22.562511 ],
					"proportion" : 0.39,
					"rounded" : 0,
					"style" : ""
				}

			}
, 			{
				"box" : 				{
					"activebgcolor" : [ 0.095481, 0.100396, 0.100293, 1.0 ],
					"activeslidercolor" : [ 0.870588, 0.415686, 0.062745, 1.0 ],
					"appearance" : 2,
					"bordercolor" : [ 0.095481, 0.100396, 0.100293, 1.0 ],
					"focusbordercolor" : [ 0.095481, 0.100396, 0.100293, 1.0 ],
					"fontsize" : 12.0,
					"id" : "obj-147",
					"maxclass" : "live.numbox",
					"numinlets" : 1,
					"numoutlets" : 2,
					"outlettype" : [ "", "float" ],
					"parameter_enable" : 1,
					"patching_rect" : [ 922.0, 163.0, 43.0, 17.0 ],
					"presentation" : 1,
					"presentation_rect" : [ 94.499992, 195.437485, 67.333328, 17.0 ],
					"saved_attribute_attributes" : 					{
						"valueof" : 						{
							"parameter_longname" : "live.numbox[49]",
							"parameter_shortname" : "live.numbox",
							"parameter_type" : 0,
							"parameter_mmax" : 1.0,
							"parameter_unitstyle" : 1
						}

					}
,
					"textcolor" : [ 0.960784, 0.827451, 0.156863, 1.0 ],
					"varname" : "delay_path"
				}

			}
, 			{
				"box" : 				{
					"angle" : 270.0,
					"bordercolor" : [ 0.0, 0.0, 0.0, 1.0 ],
					"grad1" : [ 0.095481, 0.100396, 0.100293, 1.0 ],
					"grad2" : [ 0.095481, 0.100396, 0.100293, 1.0 ],
					"id" : "obj-148",
					"maxclass" : "panel",
					"mode" : 1,
					"numinlets" : 1,
					"numoutlets" : 0,
					"patching_rect" : [ 95.833321, 192.937485, 96.0, 24.0 ],
					"presentation" : 1,
					"presentation_rect" : [ 94.499992, 192.937485, 67.333328, 22.562511 ],
					"proportion" : 0.39,
					"rounded" : 0,
					"style" : ""
				}

			}
, 			{
				"box" : 				{
					"fontname" : "Arial",
					"id" : "obj-149",
					"maxclass" : "comment",
					"numinlets" : 1,
					"numoutlets" : 0,
					"patching_rect" : [ -1.04171, 262.5, 81.833344, 20.0 ],
					"presentation" : 1,
					"presentation_rect" : [ 1.0, 194.270828, 88.5, 20.0 ],
					"style" : "",
					"text" : "DIRTY",
					"textcolor" : [ 0.65098, 0.666667, 0.662745, 1.0 ]
				}

			}
, 			{
				"box" : 				{
					"angle" : 270.0,
					"bordercolor" : [ 0.0, 0.0, 0.0, 1.0 ],
					"grad1" : [ 0.095481, 0.100396, 0.100293, 1.0 ],
					"grad2" : [ 0.095481, 0.100396, 0.100293, 1.0 ],
					"id" : "obj-150",
					"maxclass" : "panel",
					"mode" : 1,
					"numinlets" : 1,
					"numoutlets" : 0,
					"patching_rect" : [ -5.791711, 261.166687, 110.833344, 24.0 ],
					"presentation" : 1,
					"presentation_rect" : [ 1.0, 192.937485, 88.5, 22.562511 ],
					"proportion" : 0.39,
					"rounded" : 0,
					"style" : ""
				}

			}
, 			{
				"box" : 				{
					"activebgcolor" : [ 0.095481, 0.100396, 0.100293, 1.0 ],
					"activeslidercolor" : [ 0.870588, 0.415686, 0.062745, 1.0 ],
					"appearance" : 2,
					"bordercolor" : [ 0.095481, 0.100396, 0.100293, 1.0 ],
					"focusbordercolor" : [ 0.095481, 0.100396, 0.100293, 1.0 ],
					"fontsize" : 12.0,
					"id" : "obj-143",
					"maxclass" : "live.numbox",
					"numinlets" : 1,
					"numoutlets" : 2,
					"outlettype" : [ "", "float" ],
					"parameter_enable" : 1,
					"patching_rect" : [ 791.666626, 184.0, 43.0, 17.0 ],
					"presentation" : 1,
					"presentation_rect" : [ 94.499985, 222.104156, 67.333328, 17.0 ],
					"saved_attribute_attributes" : 					{
						"valueof" : 						{
							"parameter_longname" : "live.numbox[50]",
							"parameter_shortname" : "live.numbox",
							"parameter_type" : 0,
							"parameter_mmax" : 1.0,
							"parameter_unitstyle" : 1
						}

					}
,
					"textcolor" : [ 0.960784, 0.827451, 0.156863, 1.0 ],
					"varname" : "delay_cmp_drywet"
				}

			}
, 			{
				"box" : 				{
					"angle" : 270.0,
					"bordercolor" : [ 0.0, 0.0, 0.0, 1.0 ],
					"grad1" : [ 0.095481, 0.100396, 0.100293, 1.0 ],
					"grad2" : [ 0.095481, 0.100396, 0.100293, 1.0 ],
					"id" : "obj-144",
					"maxclass" : "panel",
					"mode" : 1,
					"numinlets" : 1,
					"numoutlets" : 0,
					"patching_rect" : [ 94.499985, 219.604156, 96.0, 24.0 ],
					"presentation" : 1,
					"presentation_rect" : [ 94.499985, 219.604156, 67.333328, 22.562511 ],
					"proportion" : 0.39,
					"rounded" : 0,
					"style" : ""
				}

			}
, 			{
				"box" : 				{
					"fontname" : "Arial",
					"id" : "obj-145",
					"maxclass" : "comment",
					"numinlets" : 1,
					"numoutlets" : 0,
					"patching_rect" : [ -2.375044, 289.166687, 81.833344, 20.0 ],
					"presentation" : 1,
					"presentation_rect" : [ 0.999998, 220.9375, 83.75, 20.0 ],
					"style" : "",
					"text" : "DRY - WET",
					"textcolor" : [ 0.65098, 0.666667, 0.662745, 1.0 ]
				}

			}
, 			{
				"box" : 				{
					"angle" : 270.0,
					"bordercolor" : [ 0.0, 0.0, 0.0, 1.0 ],
					"grad1" : [ 0.095481, 0.100396, 0.100293, 1.0 ],
					"grad2" : [ 0.095481, 0.100396, 0.100293, 1.0 ],
					"id" : "obj-146",
					"maxclass" : "panel",
					"mode" : 1,
					"numinlets" : 1,
					"numoutlets" : 0,
					"patching_rect" : [ -7.125044, 287.833344, 110.833344, 24.0 ],
					"presentation" : 1,
					"presentation_rect" : [ 0.999998, 219.604156, 88.5, 22.562511 ],
					"proportion" : 0.39,
					"rounded" : 0,
					"style" : ""
				}

			}
, 			{
				"box" : 				{
					"id" : "obj-97",
					"maxclass" : "message",
					"numinlets" : 2,
					"numoutlets" : 1,
					"outlettype" : [ "" ],
					"patching_rect" : [ 172.583344, 532.0, 43.0, 22.0 ],
					"style" : "",
					"text" : "set $1"
				}

			}
, 			{
				"box" : 				{
					"fontsize" : 11.0,
					"id" : "obj-95",
					"maxclass" : "comment",
					"numinlets" : 1,
					"numoutlets" : 0,
					"patching_rect" : [ 93.604088, 193.270828, 111.0, 19.0 ],
					"presentation" : 1,
					"presentation_rect" : [ 59.979164, 93.699982, 40.0, 19.0 ],
					"style" : "",
					"text" : "FDBK",
					"textcolor" : [ 0.952941, 0.564706, 0.098039, 1.0 ]
				}

			}
, 			{
				"box" : 				{
					"fontsize" : 11.0,
					"id" : "obj-93",
					"maxclass" : "comment",
					"numinlets" : 1,
					"numoutlets" : 0,
					"patching_rect" : [ 160.854187, 194.270828, 111.0, 19.0 ],
					"presentation" : 1,
					"presentation_rect" : [ 112.979164, 93.699982, 40.0, 19.0 ],
					"style" : "",
					"text" : "DLY L",
					"textcolor" : [ 0.952941, 0.564706, 0.098039, 1.0 ]
				}

			}
, 			{
				"box" : 				{
					"fontsize" : 11.0,
					"id" : "obj-90",
					"maxclass" : "comment",
					"numinlets" : 1,
					"numoutlets" : 0,
					"patching_rect" : [ 32.249886, 262.5, 125.833344, 19.0 ],
					"presentation" : 1,
					"presentation_rect" : [ 5.770849, 93.699982, 40.0, 19.0 ],
					"style" : "",
					"text" : "DLY R",
					"textcolor" : [ 0.952941, 0.564706, 0.098039, 1.0 ]
				}

			}
, 			{
				"box" : 				{
					"angle" : 270.0,
					"bordercolor" : [ 0.0, 0.0, 0.0, 1.0 ],
					"grad1" : [ 0.095481, 0.100396, 0.100293, 1.0 ],
					"grad2" : [ 0.095481, 0.100396, 0.100293, 1.0 ],
					"id" : "obj-88",
					"maxclass" : "panel",
					"mode" : 1,
					"numinlets" : 1,
					"numoutlets" : 0,
					"patching_rect" : [ 155.0625, 197.270828, 96.0, 24.0 ],
					"presentation" : 1,
					"presentation_rect" : [ 107.979164, 93.699982, 50.0, 19.0 ],
					"proportion" : 0.39,
					"rounded" : 0,
					"style" : ""
				}

			}
, 			{
				"box" : 				{
					"angle" : 270.0,
					"bordercolor" : [ 0.0, 0.0, 0.0, 1.0 ],
					"grad1" : [ 0.095481, 0.100396, 0.100293, 1.0 ],
					"grad2" : [ 0.095481, 0.100396, 0.100293, 1.0 ],
					"id" : "obj-85",
					"maxclass" : "panel",
					"mode" : 1,
					"numinlets" : 1,
					"numoutlets" : 0,
					"patching_rect" : [ 86.145775, 191.270828, 96.0, 24.0 ],
					"presentation" : 1,
					"presentation_rect" : [ 54.979164, 93.699982, 50.0, 19.0 ],
					"proportion" : 0.39,
					"rounded" : 0,
					"style" : ""
				}

			}
, 			{
				"box" : 				{
					"angle" : 270.0,
					"bordercolor" : [ 0.0, 0.0, 0.0, 1.0 ],
					"grad1" : [ 0.095481, 0.100396, 0.100293, 1.0 ],
					"grad2" : [ 0.095481, 0.100396, 0.100293, 1.0 ],
					"id" : "obj-76",
					"maxclass" : "panel",
					"mode" : 1,
					"numinlets" : 1,
					"numoutlets" : 0,
					"patching_rect" : [ 24.020737, 264.5, 110.833344, 24.0 ],
					"presentation" : 1,
					"presentation_rect" : [ 0.520851, 93.699982, 50.0, 19.0 ],
					"proportion" : 0.39,
					"rounded" : 0,
					"style" : ""
				}

			}
, 			{
				"box" : 				{
					"angle" : 270.0,
					"bordercolor" : [ 0.0, 0.0, 0.0, 1.0 ],
					"grad1" : [ 0.095481, 0.100396, 0.100293, 1.0 ],
					"grad2" : [ 0.095481, 0.100396, 0.100293, 1.0 ],
					"id" : "obj-75",
					"maxclass" : "panel",
					"mode" : 1,
					"numinlets" : 1,
					"numoutlets" : 0,
					"patching_rect" : [ 274.5, 177.404175, 96.0, 24.0 ],
					"presentation" : 1,
					"presentation_rect" : [ 54.979164, 76.833328, 50.0, 14.833344 ],
					"proportion" : 0.39,
					"rounded" : 0,
					"style" : ""
				}

			}
, 			{
				"box" : 				{
					"id" : "obj-74",
					"maxclass" : "newobj",
					"numinlets" : 1,
					"numoutlets" : 1,
					"outlettype" : [ "float" ],
					"patching_rect" : [ 727.0, 54.333313, 34.0, 22.0 ],
					"style" : "",
					"text" : "t 0.5"
				}

			}
, 			{
				"box" : 				{
					"id" : "obj-73",
					"maxclass" : "newobj",
					"numinlets" : 2,
					"numoutlets" : 2,
					"outlettype" : [ "bang", "" ],
					"patching_rect" : [ 727.0, 21.0, 36.0, 22.0 ],
					"style" : "",
					"text" : "sel 1"
				}

			}
, 			{
				"box" : 				{
					"id" : "obj-72",
					"linecount" : 2,
					"maxclass" : "message",
					"numinlets" : 2,
					"numoutlets" : 1,
					"outlettype" : [ "" ],
					"patching_rect" : [ 727.0, 91.0, 85.0, 36.0 ],
					"style" : "",
					"text" : "bgfillcolor 0.3 0.3 0.3 $1"
				}

			}
, 			{
				"box" : 				{
					"id" : "obj-66",
					"maxclass" : "newobj",
					"numinlets" : 2,
					"numoutlets" : 2,
					"outlettype" : [ "bang", "" ],
					"patching_rect" : [ 451.333344, 221.699982, 36.0, 22.0 ],
					"style" : "",
					"text" : "sel 1"
				}

			}
, 			{
				"box" : 				{
					"id" : "obj-59",
					"maxclass" : "newobj",
					"numinlets" : 2,
					"numoutlets" : 1,
					"outlettype" : [ "" ],
					"patching_rect" : [ 561.583374, 282.5, 34.0, 22.0 ],
					"style" : "",
					"text" : "gate"
				}

			}
, 			{
				"box" : 				{
					"id" : "obj-57",
					"maxclass" : "message",
					"numinlets" : 2,
					"numoutlets" : 1,
					"outlettype" : [ "" ],
					"patching_rect" : [ 704.083313, 184.0, 84.0, 22.0 ],
					"style" : "",
					"text" : "ignoreclick $1"
				}

			}
, 			{
				"box" : 				{
					"fontsize" : 11.0,
					"id" : "obj-52",
					"maxclass" : "comment",
					"numinlets" : 1,
					"numoutlets" : 0,
					"patching_rect" : [ 296.0, 121.40416, 99.0, 19.0 ],
					"presentation" : 1,
					"presentation_rect" : [ 22.87504, 115.699982, 36.0, 19.0 ],
					"style" : "",
					"text" : "LINK",
					"textcolor" : [ 0.952941, 0.564706, 0.098039, 1.0 ]
				}

			}
, 			{
				"box" : 				{
					"id" : "obj-48",
					"maxclass" : "newobj",
					"numinlets" : 6,
					"numoutlets" : 1,
					"outlettype" : [ "" ],
					"patching_rect" : [ 468.833344, 343.0, 213.0, 22.0 ],
					"style" : "",
					"text" : "scale 0. 2000. 2000. 0. 0.5 @classic 0"
				}

			}
, 			{
				"box" : 				{
					"id" : "obj-47",
					"maxclass" : "newobj",
					"numinlets" : 1,
					"numoutlets" : 1,
					"outlettype" : [ "bang" ],
					"patching_rect" : [ 807.666626, 431.050018, 60.0, 22.0 ],
					"style" : "",
					"text" : "loadbang"
				}

			}
, 			{
				"box" : 				{
					"id" : "obj-12",
					"maxclass" : "newobj",
					"numinlets" : 1,
					"numoutlets" : 0,
					"patching_rect" : [ 648.833313, 807.083313, 79.0, 22.0 ],
					"style" : "",
					"text" : "s delay_right"
				}

			}
, 			{
				"box" : 				{
					"id" : "obj-8",
					"maxclass" : "newobj",
					"numinlets" : 1,
					"numoutlets" : 0,
					"patching_rect" : [ 433.833344, 807.083313, 71.0, 22.0 ],
					"style" : "",
					"text" : "s delay_left"
				}

			}
, 			{
				"box" : 				{
					"id" : "obj-5",
					"maxclass" : "newobj",
					"numinlets" : 2,
					"numoutlets" : 1,
					"outlettype" : [ "int" ],
					"patching_rect" : [ 574.5, 66.0, 31.0, 22.0 ],
					"style" : "",
					"text" : "!= 1"
				}

			}
, 			{
				"box" : 				{
					"id" : "obj-2",
					"maxclass" : "message",
					"numinlets" : 2,
					"numoutlets" : 1,
					"outlettype" : [ "" ],
					"patching_rect" : [ 325.0, 431.0, 50.0, 22.0 ],
					"style" : "",
					"text" : "0"
				}

			}
, 			{
				"box" : 				{
					"id" : "obj-46",
					"maxclass" : "message",
					"numinlets" : 2,
					"numoutlets" : 1,
					"outlettype" : [ "" ],
					"patching_rect" : [ 854.0, 585.666687, 50.0, 22.0 ],
					"style" : "",
					"text" : "2000."
				}

			}
, 			{
				"box" : 				{
					"angle" : 270.0,
					"bordercolor" : [ 0.0, 0.0, 0.0, 1.0 ],
					"grad1" : [ 0.095481, 0.100396, 0.100293, 1.0 ],
					"grad2" : [ 0.095481, 0.100396, 0.100293, 1.0 ],
					"id" : "obj-44",
					"maxclass" : "panel",
					"mode" : 1,
					"numinlets" : 1,
					"numoutlets" : 0,
					"patching_rect" : [ 114.75, 129.699982, 96.0, 24.0 ],
					"presentation" : 1,
					"presentation_rect" : [ 0.520851, 76.833328, 50.0, 14.866653 ],
					"proportion" : 0.39,
					"rounded" : 0,
					"style" : ""
				}

			}
, 			{
				"box" : 				{
					"bgcolor" : [ 0.095481, 0.100396, 0.100293, 1.0 ],
					"floatoutput" : 1,
					"id" : "obj-42",
					"maxclass" : "dial",
					"needlecolor" : [ 0.952941, 0.564706, 0.098039, 1.0 ],
					"numinlets" : 1,
					"numoutlets" : 1,
					"outlettype" : [ "float" ],
					"parameter_enable" : 0,
					"patching_rect" : [ 172.583344, 473.5, 40.0, 40.0 ],
					"presentation" : 1,
					"presentation_rect" : [ 54.958313, 35.5, 50.0, 50.0 ],
					"size" : 2.0,
					"style" : "",
					"varname" : "feedback"
				}

			}
, 			{
				"box" : 				{
					"id" : "obj-41",
					"maxclass" : "newobj",
					"numinlets" : 2,
					"numoutlets" : 1,
					"outlettype" : [ "" ],
					"patching_rect" : [ 468.833344, 524.549988, 61.0, 22.0 ],
					"style" : "",
					"text" : "round 0.1"
				}

			}
, 			{
				"box" : 				{
					"id" : "obj-40",
					"maxclass" : "newobj",
					"numinlets" : 2,
					"numoutlets" : 1,
					"outlettype" : [ "" ],
					"patching_rect" : [ 683.833313, 524.549988, 61.0, 22.0 ],
					"style" : "",
					"text" : "round 0.1"
				}

			}
, 			{
				"box" : 				{
					"id" : "obj-15",
					"maxclass" : "newobj",
					"numinlets" : 2,
					"numoutlets" : 2,
					"outlettype" : [ "", "" ],
					"patching_rect" : [ 623.833313, 703.049988, 44.0, 22.0 ],
					"style" : "",
					"text" : "gate 2"
				}

			}
, 			{
				"box" : 				{
					"id" : "obj-18",
					"maxclass" : "newobj",
					"numinlets" : 3,
					"numoutlets" : 1,
					"outlettype" : [ "" ],
					"patching_rect" : [ 648.833313, 609.049988, 54.0, 22.0 ],
					"style" : "",
					"text" : "switch 2"
				}

			}
, 			{
				"box" : 				{
					"id" : "obj-19",
					"maxclass" : "message",
					"numinlets" : 2,
					"numoutlets" : 1,
					"outlettype" : [ "" ],
					"patching_rect" : [ 704.083313, 495.050018, 117.0, 22.0 ],
					"style" : "",
					"text" : "read metrospeed.txt"
				}

			}
, 			{
				"box" : 				{
					"id" : "obj-23",
					"maxclass" : "newobj",
					"numinlets" : 6,
					"numoutlets" : 1,
					"outlettype" : [ "" ],
					"patching_rect" : [ 683.833313, 343.0, 213.0, 22.0 ],
					"style" : "",
					"text" : "scale 0. 2000. 2000. 0. 0.5 @classic 0"
				}

			}
, 			{
				"box" : 				{
					"id" : "obj-24",
					"maxclass" : "message",
					"numinlets" : 2,
					"numoutlets" : 1,
					"outlettype" : [ "" ],
					"patching_rect" : [ 717.833313, 703.049988, 43.0, 22.0 ],
					"style" : "",
					"text" : "set $1"
				}

			}
, 			{
				"box" : 				{
					"id" : "obj-34",
					"maxclass" : "newobj",
					"numinlets" : 2,
					"numoutlets" : 1,
					"outlettype" : [ "" ],
					"patching_rect" : [ 666.333313, 458.050018, 51.0, 22.0 ],
					"style" : "",
					"text" : "round 0"
				}

			}
, 			{
				"box" : 				{
					"id" : "obj-35",
					"maxclass" : "newobj",
					"numinlets" : 5,
					"numoutlets" : 1,
					"outlettype" : [ "" ],
					"patching_rect" : [ 666.333313, 414.050018, 119.0, 22.0 ],
					"style" : "",
					"text" : "zmap 0. 2000. 0. 11."
				}

			}
, 			{
				"box" : 				{
					"bgcolor" : [ 0.095481, 0.100396, 0.100293, 1.0 ],
					"id" : "obj-36",
					"ignoreclick" : 1,
					"maxclass" : "dial",
					"needlecolor" : [ 0.952941, 0.564706, 0.098039, 1.0 ],
					"numinlets" : 1,
					"numoutlets" : 1,
					"outlettype" : [ "float" ],
					"outlinecolor" : [ 0.32549, 0.345098, 0.372549, 1.0 ],
					"parameter_enable" : 0,
					"patching_rect" : [ 666.333313, 264.5, 40.0, 40.0 ],
					"presentation" : 1,
					"presentation_rect" : [ 107.979164, 35.5, 50.0, 50.0 ],
					"size" : 2000.0,
					"style" : ""
				}

			}
, 			{
				"box" : 				{
					"id" : "obj-37",
					"maxclass" : "newobj",
					"numinlets" : 1,
					"numoutlets" : 1,
					"outlettype" : [ "" ],
					"patching_rect" : [ 623.833313, 756.049988, 137.0, 22.0 ],
					"style" : "",
					"text" : "translate notevalues ms"
				}

			}
, 			{
				"box" : 				{
					"id" : "obj-38",
					"maxclass" : "newobj",
					"numinlets" : 1,
					"numoutlets" : 4,
					"outlettype" : [ "", "", "", "" ],
					"patching_rect" : [ 666.333313, 551.049988, 71.0, 22.0 ],
					"saved_object_attributes" : 					{
						"embed" : 0
					}
,
					"style" : "",
					"text" : "coll speeds"
				}

			}
, 			{
				"box" : 				{
					"id" : "obj-14",
					"maxclass" : "newobj",
					"numinlets" : 2,
					"numoutlets" : 2,
					"outlettype" : [ "", "" ],
					"patching_rect" : [ 408.833344, 703.049988, 44.0, 22.0 ],
					"style" : "",
					"text" : "gate 2"
				}

			}
, 			{
				"box" : 				{
					"id" : "obj-7",
					"maxclass" : "newobj",
					"numinlets" : 3,
					"numoutlets" : 1,
					"outlettype" : [ "" ],
					"patching_rect" : [ 433.833344, 609.049988, 54.0, 22.0 ],
					"style" : "",
					"text" : "switch 2"
				}

			}
, 			{
				"box" : 				{
					"id" : "obj-16",
					"maxclass" : "message",
					"numinlets" : 2,
					"numoutlets" : 1,
					"outlettype" : [ "" ],
					"patching_rect" : [ 489.083344, 495.050018, 117.0, 22.0 ],
					"style" : "",
					"text" : "read metrospeed.txt"
				}

			}
, 			{
				"box" : 				{
					"id" : "obj-194",
					"maxclass" : "newobj",
					"numinlets" : 2,
					"numoutlets" : 1,
					"outlettype" : [ "int" ],
					"patching_rect" : [ 575.25, 97.5, 29.5, 22.0 ],
					"style" : "",
					"text" : "+ 1"
				}

			}
, 			{
				"box" : 				{
					"id" : "obj-183",
					"maxclass" : "message",
					"numinlets" : 2,
					"numoutlets" : 1,
					"outlettype" : [ "" ],
					"patching_rect" : [ 502.833344, 703.049988, 43.0, 22.0 ],
					"style" : "",
					"text" : "set $1"
				}

			}
, 			{
				"box" : 				{
					"id" : "obj-177",
					"maxclass" : "newobj",
					"numinlets" : 2,
					"numoutlets" : 1,
					"outlettype" : [ "" ],
					"patching_rect" : [ 451.333344, 458.050018, 51.0, 22.0 ],
					"style" : "",
					"text" : "round 0"
				}

			}
, 			{
				"box" : 				{
					"id" : "obj-178",
					"maxclass" : "newobj",
					"numinlets" : 5,
					"numoutlets" : 1,
					"outlettype" : [ "" ],
					"patching_rect" : [ 451.333344, 414.050018, 119.0, 22.0 ],
					"style" : "",
					"text" : "zmap 0. 2000. 0. 11."
				}

			}
, 			{
				"box" : 				{
					"bgcolor" : [ 0.095481, 0.100396, 0.100293, 1.0 ],
					"id" : "obj-179",
					"maxclass" : "dial",
					"needlecolor" : [ 0.952941, 0.564706, 0.098039, 1.0 ],
					"numinlets" : 1,
					"numoutlets" : 1,
					"outlettype" : [ "float" ],
					"parameter_enable" : 0,
					"patching_rect" : [ 451.333344, 264.5, 40.0, 40.0 ],
					"presentation" : 1,
					"presentation_rect" : [ 0.520851, 35.5, 50.0, 50.0 ],
					"size" : 2000.0,
					"style" : ""
				}

			}
, 			{
				"box" : 				{
					"id" : "obj-165",
					"linecount" : 2,
					"maxclass" : "message",
					"numinlets" : 2,
					"numoutlets" : 1,
					"outlettype" : [ "" ],
					"patching_rect" : [ 1022.0, 332.0, 224.0, 36.0 ],
					"style" : "",
					"text" : "1/4D 1/4 1/4T 1/8D 1/8 1/8T 1/16D 1/16 1/16T 1/32D 1/32 1/32T"
				}

			}
, 			{
				"box" : 				{
					"id" : "obj-163",
					"maxclass" : "newobj",
					"numinlets" : 1,
					"numoutlets" : 1,
					"outlettype" : [ "" ],
					"patching_rect" : [ 996.833496, 405.0, 157.0, 22.0 ],
					"style" : "",
					"text" : "prepend _parameter_range"
				}

			}
, 			{
				"box" : 				{
					"id" : "obj-157",
					"maxclass" : "newobj",
					"numinlets" : 1,
					"numoutlets" : 1,
					"outlettype" : [ "" ],
					"patching_rect" : [ 408.833344, 756.049988, 137.0, 22.0 ],
					"style" : "",
					"text" : "translate notevalues ms"
				}

			}
, 			{
				"box" : 				{
					"id" : "obj-111",
					"maxclass" : "newobj",
					"numinlets" : 1,
					"numoutlets" : 4,
					"outlettype" : [ "", "", "", "" ],
					"patching_rect" : [ 451.333344, 551.049988, 71.0, 22.0 ],
					"saved_object_attributes" : 					{
						"embed" : 0
					}
,
					"style" : "",
					"text" : "coll speeds"
				}

			}
, 			{
				"box" : 				{
					"id" : "obj-10",
					"maxclass" : "newobj",
					"numinlets" : 1,
					"numoutlets" : 4,
					"outlettype" : [ "", "", "", "" ],
					"patching_rect" : [ 13.0, 443.0, 58.0, 22.0 ],
					"restore" : 					{
						"delay_cmp_drywet" : [ 0.0 ],
						"delay_cmp_ratio" : [ 4.0 ],
						"delay_cmp_time" : [ 56.513158 ],
						"delay_path" : [ 0.0 ],
						"feedback" : [ 0.0 ],
						"pitch_fm_on" : [ 0 ],
						"ptch_fm_select_freq_src" : [ 0 ],
						"ptch_fm_select_freq_src[1]" : [ 1 ]
					}
,
					"style" : "",
					"text" : "autopattr",
					"varname" : "u993004299"
				}

			}
, 			{
				"box" : 				{
					"id" : "obj-6",
					"maxclass" : "newobj",
					"numinlets" : 0,
					"numoutlets" : 1,
					"outlettype" : [ "" ],
					"patching_rect" : [ 231.0, 282.5, 75.0, 22.0 ],
					"style" : "",
					"text" : "r bufferbang"
				}

			}
, 			{
				"box" : 				{
					"id" : "obj-9",
					"maxclass" : "newobj",
					"numinlets" : 1,
					"numoutlets" : 1,
					"outlettype" : [ "signal" ],
					"patching_rect" : [ 1004.0, 617.033325, 99.0, 22.0 ],
					"style" : "",
					"text" : "receive~ noise1"
				}

			}
, 			{
				"box" : 				{
					"activebgcolor" : [ 0.095481, 0.100396, 0.100293, 1.0 ],
					"activeslidercolor" : [ 0.870588, 0.415686, 0.062745, 1.0 ],
					"appearance" : 2,
					"bordercolor" : [ 0.095481, 0.100396, 0.100293, 1.0 ],
					"focusbordercolor" : [ 0.095481, 0.100396, 0.100293, 1.0 ],
					"fontsize" : 12.0,
					"id" : "obj-30",
					"maxclass" : "live.numbox",
					"numinlets" : 1,
					"numoutlets" : 2,
					"outlettype" : [ "", "float" ],
					"parameter_enable" : 1,
					"patching_rect" : [ 931.666748, 258.333344, 43.0, 17.0 ],
					"presentation" : 1,
					"presentation_rect" : [ 94.499985, 272.333344, 67.333328, 17.0 ],
					"saved_attribute_attributes" : 					{
						"valueof" : 						{
							"parameter_longname" : "live.numbox[51]",
							"parameter_shortname" : "live.numbox",
							"parameter_type" : 0,
							"parameter_mmin" : 10.0,
							"parameter_mmax" : 1000.0,
							"parameter_unitstyle" : 1,
							"parameter_exponent" : 2.0
						}

					}
,
					"textcolor" : [ 0.960784, 0.827451, 0.156863, 1.0 ],
					"varname" : "delay_cmp_time"
				}

			}
, 			{
				"box" : 				{
					"angle" : 270.0,
					"bordercolor" : [ 0.0, 0.0, 0.0, 1.0 ],
					"grad1" : [ 0.095481, 0.100396, 0.100293, 1.0 ],
					"grad2" : [ 0.095481, 0.100396, 0.100293, 1.0 ],
					"id" : "obj-28",
					"maxclass" : "panel",
					"mode" : 1,
					"numinlets" : 1,
					"numoutlets" : 0,
					"patching_rect" : [ 146.354187, 208.270828, 96.0, 24.0 ],
					"presentation" : 1,
					"presentation_rect" : [ 94.499985, 269.833344, 67.333328, 22.562511 ],
					"proportion" : 0.39,
					"rounded" : 0,
					"style" : ""
				}

			}
, 			{
				"box" : 				{
					"comment" : "",
					"id" : "obj-195",
					"maxclass" : "outlet",
					"numinlets" : 1,
					"numoutlets" : 0,
					"patching_rect" : [ 837.0, 617.033325, 30.0, 30.0 ],
					"style" : ""
				}

			}
, 			{
				"box" : 				{
					"id" : "obj-127",
					"maxclass" : "newobj",
					"numinlets" : 1,
					"numoutlets" : 1,
					"outlettype" : [ "" ],
					"patching_rect" : [ 308.0, 258.5, 74.0, 22.0 ],
					"style" : "",
					"text" : "loadmess 0"
				}

			}
, 			{
				"box" : 				{
					"fontsize" : 11.0,
					"id" : "obj-103",
					"maxclass" : "comment",
					"numinlets" : 1,
					"numoutlets" : 0,
					"patching_rect" : [ 94.499985, 117.699982, 111.0, 19.0 ],
					"presentation" : 1,
					"presentation_rect" : [ 95.729149, 115.699982, 41.0, 19.0 ],
					"style" : "",
					"text" : "SYNC",
					"textcolor" : [ 0.952941, 0.564706, 0.098039, 1.0 ]
				}

			}
, 			{
				"box" : 				{
					"angle" : 270.0,
					"bordercolor" : [ 0.0, 0.0, 0.0, 1.0 ],
					"grad1" : [ 0.095481, 0.100396, 0.100293, 1.0 ],
					"grad2" : [ 0.095481, 0.100396, 0.100293, 1.0 ],
					"id" : "obj-105",
					"maxclass" : "panel",
					"mode" : 1,
					"numinlets" : 1,
					"numoutlets" : 0,
					"patching_rect" : [ 7.416546, 258.5, 110.833344, 24.0 ],
					"presentation" : 1,
					"presentation_rect" : [ 0.5, 114.699982, 158.916626, 20.0 ],
					"proportion" : 0.39,
					"rounded" : 0,
					"style" : ""
				}

			}
, 			{
				"box" : 				{
					"id" : "obj-69",
					"maxclass" : "comment",
					"numinlets" : 1,
					"numoutlets" : 0,
					"patching_rect" : [ 119.208313, 199.770828, 150.0, 20.0 ],
					"presentation" : 1,
					"presentation_rect" : [ 94.499985, 296.399963, 43.458328, 20.0 ],
					"style" : "",
					"text" : "PAGE",
					"textcolor" : [ 0.65098, 0.666667, 0.662745, 1.0 ]
				}

			}
, 			{
				"box" : 				{
					"id" : "obj-68",
					"maxclass" : "comment",
					"numinlets" : 1,
					"numoutlets" : 0,
					"patching_rect" : [ 30.270737, 272.5, 164.833344, 20.0 ],
					"presentation" : 1,
					"presentation_rect" : [ 5.749998, 136.699982, 51.0, 20.0 ],
					"style" : "",
					"text" : "MAIN",
					"textcolor" : [ 0.65098, 0.666667, 0.662745, 1.0 ]
				}

			}
, 			{
				"box" : 				{
					"id" : "obj-61",
					"maxclass" : "message",
					"numinlets" : 2,
					"numoutlets" : 1,
					"outlettype" : [ "" ],
					"patching_rect" : [ 1132.000122, 117.866676, 69.0, 22.0 ],
					"style" : "",
					"text" : "offset -0. 0"
				}

			}
, 			{
				"box" : 				{
					"fontname" : "Arial",
					"id" : "obj-77",
					"linecount" : 2,
					"maxclass" : "comment",
					"numinlets" : 1,
					"numoutlets" : 0,
					"patching_rect" : [ 872.500122, 92.0, 67.0, 34.0 ],
					"presentation" : 1,
					"presentation_rect" : [ 0.999998, 271.166687, 83.75, 20.0 ],
					"style" : "",
					"text" : "COMP TIME",
					"textcolor" : [ 0.65098, 0.666667, 0.662745, 1.0 ]
				}

			}
, 			{
				"box" : 				{
					"angle" : 270.0,
					"bordercolor" : [ 0.0, 0.0, 0.0, 1.0 ],
					"grad1" : [ 0.095481, 0.100396, 0.100293, 1.0 ],
					"grad2" : [ 0.095481, 0.100396, 0.100293, 1.0 ],
					"id" : "obj-29",
					"maxclass" : "panel",
					"mode" : 1,
					"numinlets" : 1,
					"numoutlets" : 0,
					"patching_rect" : [ 32.270733, 276.5, 110.833344, 24.0 ],
					"presentation" : 1,
					"presentation_rect" : [ 0.999998, 269.833344, 88.5, 22.562511 ],
					"proportion" : 0.39,
					"rounded" : 0,
					"style" : ""
				}

			}
, 			{
				"box" : 				{
					"id" : "obj-67",
					"maxclass" : "comment",
					"numinlets" : 1,
					"numoutlets" : 0,
					"patching_rect" : [ 264.75, 28.300049, 150.0, 20.0 ],
					"presentation" : 1,
					"presentation_rect" : [ 66.999985, 136.699982, 70.958328, 20.0 ],
					"style" : "",
					"text" : "SETTINGS",
					"textcolor" : [ 0.65098, 0.666667, 0.662745, 1.0 ]
				}

			}
, 			{
				"box" : 				{
					"id" : "obj-62",
					"maxclass" : "comment",
					"numinlets" : 1,
					"numoutlets" : 0,
					"patching_rect" : [ 133.666656, 236.404175, 150.0, 20.0 ],
					"presentation" : 1,
					"presentation_rect" : [ 5.749998, 296.399963, 83.75, 20.0 ],
					"style" : "",
					"text" : "MODLATION",
					"textcolor" : [ 0.65098, 0.666667, 0.662745, 1.0 ]
				}

			}
, 			{
				"box" : 				{
					"bgcolor" : [ 0.095481, 0.100396, 0.100293, 1.0 ],
					"blinkcolor" : [ 0.952941, 0.564706, 0.098039, 1.0 ],
					"id" : "obj-84",
					"maxclass" : "button",
					"numinlets" : 1,
					"numoutlets" : 1,
					"outlettype" : [ "bang" ],
					"patching_rect" : [ 1118.16687, 64.666664, 24.0, 24.0 ],
					"presentation" : 1,
					"presentation_rect" : [ 133.958313, 296.399963, 20.0, 20.0 ],
					"style" : ""
				}

			}
, 			{
				"box" : 				{
					"bgcolor" : [ 0.095481, 0.100396, 0.100293, 1.0 ],
					"blinkcolor" : [ 0.952941, 0.564706, 0.098039, 1.0 ],
					"id" : "obj-83",
					"maxclass" : "button",
					"numinlets" : 1,
					"numoutlets" : 1,
					"outlettype" : [ "bang" ],
					"patching_rect" : [ 1022.0, 72.666664, 24.0, 24.0 ],
					"presentation" : 1,
					"presentation_rect" : [ 133.958313, 136.699982, 20.0, 20.0 ],
					"style" : ""
				}

			}
, 			{
				"box" : 				{
					"id" : "obj-81",
					"maxclass" : "message",
					"numinlets" : 2,
					"numoutlets" : 1,
					"outlettype" : [ "" ],
					"patching_rect" : [ 1022.0, 117.866676, 86.0, 22.0 ],
					"style" : "",
					"text" : "offset -0. -159"
				}

			}
, 			{
				"box" : 				{
					"id" : "obj-79",
					"maxclass" : "newobj",
					"numinlets" : 1,
					"numoutlets" : 2,
					"outlettype" : [ "", "" ],
					"patching_rect" : [ 1022.0, 155.366653, 100.0, 22.0 ],
					"presentation" : 1,
					"presentation_rect" : [ 339.0, 303.5, 73.0, 22.0 ],
					"save" : [ "#N", "thispatcher", ";", "#Q", "end", ";" ],
					"style" : "",
					"text" : "thispatcher"
				}

			}
, 			{
				"box" : 				{
					"angle" : 270.0,
					"bordercolor" : [ 0.0, 0.0, 0.0, 1.0 ],
					"grad1" : [ 0.095481, 0.100396, 0.100293, 1.0 ],
					"grad2" : [ 0.095481, 0.100396, 0.100293, 1.0 ],
					"id" : "obj-26",
					"maxclass" : "panel",
					"mode" : 1,
					"numinlets" : 1,
					"numoutlets" : 0,
					"patching_rect" : [ 229.979187, 208.270828, 96.0, 24.0 ],
					"presentation" : 1,
					"presentation_rect" : [ 1.0, 296.399963, 160.833313, 20.0 ],
					"proportion" : 0.39,
					"rounded" : 0,
					"style" : ""
				}

			}
, 			{
				"box" : 				{
					"bgcolor" : [ 0.095481, 0.100396, 0.100293, 1.0 ],
					"checkedcolor" : [ 0.952941, 0.564706, 0.098039, 1.0 ],
					"id" : "obj-50",
					"ignoreclick" : 1,
					"maxclass" : "toggle",
					"numinlets" : 1,
					"numoutlets" : 1,
					"outlettype" : [ "int" ],
					"parameter_enable" : 0,
					"patching_rect" : [ 190.583344, 343.0, 24.0, 24.0 ],
					"presentation" : 1,
					"presentation_rect" : [ 1.0, 159.699982, 29.0, 29.0 ],
					"style" : "",
					"uncheckedcolor" : [ 0.65098, 0.666667, 0.662745, 1.0 ]
				}

			}
, 			{
				"box" : 				{
					"fontface" : 1,
					"fontname" : "Futura",
					"fontsize" : 18.0,
					"id" : "obj-53",
					"maxclass" : "comment",
					"numinlets" : 1,
					"numoutlets" : 0,
					"patching_rect" : [ 176.979187, 208.270828, 149.0, 27.0 ],
					"presentation" : 1,
					"presentation_rect" : [ 34.25, 159.699982, 127.583313, 27.0 ],
					"style" : "",
					"text" : "DELAY",
					"textcolor" : [ 1.0, 1.0, 1.0, 1.0 ]
				}

			}
, 			{
				"box" : 				{
					"angle" : 270.0,
					"bordercolor" : [ 0.0, 0.0, 0.0, 1.0 ],
					"grad1" : [ 0.095481, 0.100396, 0.100293, 1.0 ],
					"grad2" : [ 0.095481, 0.100396, 0.100293, 1.0 ],
					"id" : "obj-54",
					"maxclass" : "panel",
					"mode" : 1,
					"numinlets" : 1,
					"numoutlets" : 0,
					"patching_rect" : [ 106.979164, 123.699982, 96.0, 24.0 ],
					"presentation" : 1,
					"presentation_rect" : [ 34.25, 159.699982, 126.333313, 29.0 ],
					"proportion" : 0.39,
					"rounded" : 0,
					"style" : ""
				}

			}
, 			{
				"box" : 				{
					"angle" : 270.0,
					"bordercolor" : [ 0.0, 0.0, 0.0, 1.0 ],
					"grad1" : [ 0.095481, 0.100396, 0.100293, 1.0 ],
					"grad2" : [ 0.095481, 0.100396, 0.100293, 1.0 ],
					"id" : "obj-21",
					"maxclass" : "panel",
					"mode" : 1,
					"numinlets" : 1,
					"numoutlets" : 0,
					"patching_rect" : [ 52.416626, 32.333313, 96.0, 24.0 ],
					"presentation" : 1,
					"presentation_rect" : [ 1.0, 136.699982, 159.583313, 20.0 ],
					"proportion" : 0.39,
					"rounded" : 0,
					"style" : ""
				}

			}
, 			{
				"box" : 				{
					"fontname" : "Verdana",
					"fontsize" : 9.0,
					"id" : "obj-32",
					"maxclass" : "newobj",
					"numinlets" : 1,
					"numoutlets" : 1,
					"outlettype" : [ "bang" ],
					"patching_rect" : [ 83.541588, 237.570847, 52.0, 19.0 ],
					"style" : "",
					"text" : "loadbang"
				}

			}
, 			{
				"box" : 				{
					"fontname" : "Verdana",
					"fontsize" : 9.0,
					"id" : "obj-17",
					"maxclass" : "message",
					"numinlets" : 2,
					"numoutlets" : 1,
					"outlettype" : [ "" ],
					"patching_rect" : [ 69.0, 203.0, 32.5, 19.0 ],
					"style" : "",
					"text" : "64"
				}

			}
, 			{
				"box" : 				{
					"fontname" : "Verdana",
					"fontsize" : 9.0,
					"id" : "obj-11",
					"maxclass" : "newobj",
					"numinlets" : 6,
					"numoutlets" : 1,
					"outlettype" : [ "" ],
					"patching_rect" : [ 224.0, 404.0, 91.0, 19.0 ],
					"style" : "",
					"text" : "scale 0 127 -1. 1."
				}

			}
, 			{
				"box" : 				{
					"bgcolor" : [ 0.095481, 0.100396, 0.100293, 1.0 ],
					"checkedcolor" : [ 0.952941, 0.564706, 0.098039, 1.0 ],
					"id" : "obj-63",
					"maxclass" : "toggle",
					"numinlets" : 1,
					"numoutlets" : 1,
					"outlettype" : [ "int" ],
					"parameter_enable" : 0,
					"patching_rect" : [ 190.583344, 309.0, 24.0, 24.0 ],
					"presentation" : 1,
					"presentation_rect" : [ 0.5, 1.0, 29.0, 29.0 ],
					"style" : "",
					"uncheckedcolor" : [ 0.65098, 0.666667, 0.662745, 1.0 ],
					"varname" : "pitch_fm_on"
				}

			}
, 			{
				"box" : 				{
					"fontface" : 1,
					"fontname" : "Futura",
					"fontsize" : 18.0,
					"id" : "obj-25",
					"maxclass" : "comment",
					"numinlets" : 1,
					"numoutlets" : 0,
					"patching_rect" : [ 961.375, 544.0, 149.0, 27.0 ],
					"presentation" : 1,
					"presentation_rect" : [ 33.75, 1.0, 127.583313, 27.0 ],
					"style" : "",
					"text" : "DELAY",
					"textcolor" : [ 1.0, 1.0, 1.0, 1.0 ]
				}

			}
, 			{
				"box" : 				{
					"angle" : 270.0,
					"bordercolor" : [ 0.0, 0.0, 0.0, 1.0 ],
					"grad1" : [ 0.095481, 0.100396, 0.100293, 1.0 ],
					"grad2" : [ 0.095481, 0.100396, 0.100293, 1.0 ],
					"id" : "obj-39",
					"maxclass" : "panel",
					"mode" : 1,
					"numinlets" : 1,
					"numoutlets" : 0,
					"patching_rect" : [ 297.0, 15.0, 96.0, 24.0 ],
					"presentation" : 1,
					"presentation_rect" : [ 33.75, 1.0, 126.333313, 29.0 ],
					"proportion" : 0.39,
					"rounded" : 0,
					"style" : ""
				}

			}
, 			{
				"box" : 				{
					"angle" : 270.0,
					"bordercolor" : [ 0.0, 0.0, 0.0, 1.0 ],
					"grad1" : [ 0.095481, 0.100396, 0.100293, 1.0 ],
					"grad2" : [ 0.095481, 0.100396, 0.100293, 1.0 ],
					"id" : "obj-43",
					"maxclass" : "panel",
					"mode" : 1,
					"numinlets" : 1,
					"numoutlets" : 0,
					"patching_rect" : [ 153.604172, 176.404175, 96.0, 24.0 ],
					"presentation" : 1,
					"presentation_rect" : [ 107.979164, 76.833328, 50.0, 14.866653 ],
					"proportion" : 0.39,
					"rounded" : 0,
					"style" : ""
				}

			}
 ],
		"lines" : [ 			{
				"patchline" : 				{
					"destination" : [ "obj-2", 1 ],
					"disabled" : 0,
					"hidden" : 0,
					"source" : [ "obj-110", 0 ]
				}

			}
, 			{
				"patchline" : 				{
					"destination" : [ "obj-5", 0 ],
					"disabled" : 0,
					"hidden" : 0,
					"source" : [ "obj-110", 0 ]
				}

			}
, 			{
				"patchline" : 				{
					"destination" : [ "obj-7", 1 ],
					"disabled" : 0,
					"hidden" : 0,
					"source" : [ "obj-111", 0 ]
				}

			}
, 			{
				"patchline" : 				{
					"destination" : [ "obj-110", 0 ],
					"disabled" : 0,
					"hidden" : 0,
					"source" : [ "obj-127", 0 ]
				}

			}
, 			{
				"patchline" : 				{
					"destination" : [ "obj-157", 0 ],
					"disabled" : 0,
					"hidden" : 0,
					"source" : [ "obj-14", 0 ]
				}

			}
, 			{
				"patchline" : 				{
					"destination" : [ "obj-8", 0 ],
					"disabled" : 0,
					"hidden" : 0,
					"source" : [ "obj-14", 1 ]
				}

			}
, 			{
				"patchline" : 				{
					"destination" : [ "obj-170", 0 ],
					"disabled" : 0,
					"hidden" : 0,
					"source" : [ "obj-143", 0 ]
				}

			}
, 			{
				"patchline" : 				{
					"destination" : [ "obj-167", 0 ],
					"disabled" : 0,
					"hidden" : 0,
					"source" : [ "obj-147", 0 ]
				}

			}
, 			{
				"patchline" : 				{
					"destination" : [ "obj-12", 0 ],
					"disabled" : 0,
					"hidden" : 0,
					"source" : [ "obj-15", 1 ]
				}

			}
, 			{
				"patchline" : 				{
					"destination" : [ "obj-37", 0 ],
					"disabled" : 0,
					"hidden" : 0,
					"source" : [ "obj-15", 0 ]
				}

			}
, 			{
				"patchline" : 				{
					"destination" : [ "obj-169", 0 ],
					"disabled" : 0,
					"hidden" : 0,
					"source" : [ "obj-155", 0 ]
				}

			}
, 			{
				"patchline" : 				{
					"destination" : [ "obj-8", 0 ],
					"disabled" : 0,
					"hidden" : 0,
					"source" : [ "obj-157", 0 ]
				}

			}
, 			{
				"patchline" : 				{
					"destination" : [ "obj-111", 0 ],
					"disabled" : 0,
					"hidden" : 0,
					"source" : [ "obj-16", 0 ]
				}

			}
, 			{
				"patchline" : 				{
					"destination" : [ "obj-163", 0 ],
					"disabled" : 0,
					"hidden" : 0,
					"source" : [ "obj-165", 0 ]
				}

			}
, 			{
				"patchline" : 				{
					"destination" : [ "obj-143", 0 ],
					"disabled" : 0,
					"hidden" : 0,
					"source" : [ "obj-171", 0 ]
				}

			}
, 			{
				"patchline" : 				{
					"destination" : [ "obj-147", 0 ],
					"disabled" : 0,
					"hidden" : 0,
					"source" : [ "obj-172", 0 ]
				}

			}
, 			{
				"patchline" : 				{
					"destination" : [ "obj-30", 0 ],
					"disabled" : 0,
					"hidden" : 0,
					"source" : [ "obj-173", 0 ]
				}

			}
, 			{
				"patchline" : 				{
					"destination" : [ "obj-155", 0 ],
					"disabled" : 0,
					"hidden" : 0,
					"source" : [ "obj-174", 0 ]
				}

			}
, 			{
				"patchline" : 				{
					"destination" : [ "obj-111", 0 ],
					"disabled" : 0,
					"hidden" : 0,
					"source" : [ "obj-177", 0 ]
				}

			}
, 			{
				"patchline" : 				{
					"destination" : [ "obj-177", 0 ],
					"disabled" : 0,
					"hidden" : 0,
					"source" : [ "obj-178", 0 ]
				}

			}
, 			{
				"patchline" : 				{
					"destination" : [ "obj-178", 0 ],
					"disabled" : 0,
					"hidden" : 0,
					"source" : [ "obj-179", 0 ]
				}

			}
, 			{
				"patchline" : 				{
					"destination" : [ "obj-48", 0 ],
					"disabled" : 0,
					"hidden" : 0,
					"source" : [ "obj-179", 0 ]
				}

			}
, 			{
				"patchline" : 				{
					"destination" : [ "obj-59", 1 ],
					"disabled" : 0,
					"hidden" : 0,
					"source" : [ "obj-179", 0 ]
				}

			}
, 			{
				"patchline" : 				{
					"destination" : [ "obj-15", 1 ],
					"disabled" : 0,
					"hidden" : 0,
					"source" : [ "obj-18", 0 ]
				}

			}
, 			{
				"patchline" : 				{
					"destination" : [ "obj-24", 0 ],
					"disabled" : 0,
					"hidden" : 0,
					"source" : [ "obj-18", 0 ]
				}

			}
, 			{
				"patchline" : 				{
					"destination" : [ "obj-184", 0 ],
					"disabled" : 0,
					"hidden" : 0,
					"source" : [ "obj-183", 0 ]
				}

			}
, 			{
				"patchline" : 				{
					"destination" : [ "obj-38", 0 ],
					"disabled" : 0,
					"hidden" : 0,
					"source" : [ "obj-19", 0 ]
				}

			}
, 			{
				"patchline" : 				{
					"destination" : [ "obj-14", 0 ],
					"disabled" : 0,
					"hidden" : 0,
					"midpoints" : [ 584.75, 143.0, 418.333344, 143.0 ],
					"source" : [ "obj-194", 0 ]
				}

			}
, 			{
				"patchline" : 				{
					"destination" : [ "obj-15", 0 ],
					"disabled" : 0,
					"hidden" : 0,
					"midpoints" : [ 584.75, 143.0, 633.333313, 143.0 ],
					"source" : [ "obj-194", 0 ]
				}

			}
, 			{
				"patchline" : 				{
					"destination" : [ "obj-18", 0 ],
					"disabled" : 0,
					"hidden" : 0,
					"midpoints" : [ 584.75, 143.0, 658.333313, 143.0 ],
					"source" : [ "obj-194", 0 ]
				}

			}
, 			{
				"patchline" : 				{
					"destination" : [ "obj-7", 0 ],
					"disabled" : 0,
					"hidden" : 0,
					"midpoints" : [ 584.75, 143.0, 443.333344, 143.0 ],
					"source" : [ "obj-194", 0 ]
				}

			}
, 			{
				"patchline" : 				{
					"destination" : [ "obj-40", 0 ],
					"disabled" : 0,
					"hidden" : 0,
					"source" : [ "obj-23", 0 ]
				}

			}
, 			{
				"patchline" : 				{
					"destination" : [ "obj-33", 0 ],
					"disabled" : 0,
					"hidden" : 0,
					"source" : [ "obj-24", 0 ]
				}

			}
, 			{
				"patchline" : 				{
					"destination" : [ "obj-168", 0 ],
					"disabled" : 0,
					"hidden" : 0,
					"source" : [ "obj-30", 0 ]
				}

			}
, 			{
				"patchline" : 				{
					"destination" : [ "obj-17", 0 ],
					"disabled" : 0,
					"hidden" : 0,
					"source" : [ "obj-32", 0 ]
				}

			}
, 			{
				"patchline" : 				{
					"destination" : [ "obj-38", 0 ],
					"disabled" : 0,
					"hidden" : 0,
					"source" : [ "obj-34", 0 ]
				}

			}
, 			{
				"patchline" : 				{
					"destination" : [ "obj-34", 0 ],
					"disabled" : 0,
					"hidden" : 0,
					"source" : [ "obj-35", 0 ]
				}

			}
, 			{
				"patchline" : 				{
					"destination" : [ "obj-23", 0 ],
					"disabled" : 0,
					"hidden" : 0,
					"source" : [ "obj-36", 0 ]
				}

			}
, 			{
				"patchline" : 				{
					"destination" : [ "obj-35", 0 ],
					"disabled" : 0,
					"hidden" : 0,
					"source" : [ "obj-36", 0 ]
				}

			}
, 			{
				"patchline" : 				{
					"destination" : [ "obj-12", 0 ],
					"disabled" : 0,
					"hidden" : 0,
					"source" : [ "obj-37", 0 ]
				}

			}
, 			{
				"patchline" : 				{
					"destination" : [ "obj-18", 1 ],
					"disabled" : 0,
					"hidden" : 0,
					"source" : [ "obj-38", 0 ]
				}

			}
, 			{
				"patchline" : 				{
					"destination" : [ "obj-18", 2 ],
					"disabled" : 0,
					"hidden" : 0,
					"source" : [ "obj-40", 0 ]
				}

			}
, 			{
				"patchline" : 				{
					"destination" : [ "obj-46", 1 ],
					"disabled" : 0,
					"hidden" : 0,
					"source" : [ "obj-40", 0 ]
				}

			}
, 			{
				"patchline" : 				{
					"destination" : [ "obj-7", 2 ],
					"disabled" : 0,
					"hidden" : 0,
					"source" : [ "obj-41", 0 ]
				}

			}
, 			{
				"patchline" : 				{
					"destination" : [ "obj-166", 0 ],
					"disabled" : 0,
					"hidden" : 0,
					"source" : [ "obj-42", 0 ]
				}

			}
, 			{
				"patchline" : 				{
					"destination" : [ "obj-97", 0 ],
					"disabled" : 0,
					"hidden" : 0,
					"source" : [ "obj-42", 0 ]
				}

			}
, 			{
				"patchline" : 				{
					"destination" : [ "obj-16", 0 ],
					"disabled" : 0,
					"hidden" : 0,
					"midpoints" : [ 817.166626, 485.050018, 498.583344, 485.050018 ],
					"source" : [ "obj-47", 0 ]
				}

			}
, 			{
				"patchline" : 				{
					"destination" : [ "obj-19", 0 ],
					"disabled" : 0,
					"hidden" : 0,
					"midpoints" : [ 817.166626, 490.050018, 713.583313, 490.050018 ],
					"source" : [ "obj-47", 0 ]
				}

			}
, 			{
				"patchline" : 				{
					"destination" : [ "obj-41", 0 ],
					"disabled" : 0,
					"hidden" : 0,
					"source" : [ "obj-48", 0 ]
				}

			}
, 			{
				"patchline" : 				{
					"destination" : [ "obj-194", 0 ],
					"disabled" : 0,
					"hidden" : 0,
					"source" : [ "obj-5", 0 ]
				}

			}
, 			{
				"patchline" : 				{
					"destination" : [ "obj-57", 0 ],
					"disabled" : 0,
					"hidden" : 0,
					"source" : [ "obj-51", 0 ]
				}

			}
, 			{
				"patchline" : 				{
					"destination" : [ "obj-59", 0 ],
					"disabled" : 0,
					"hidden" : 0,
					"source" : [ "obj-51", 0 ]
				}

			}
, 			{
				"patchline" : 				{
					"destination" : [ "obj-66", 0 ],
					"disabled" : 0,
					"hidden" : 0,
					"source" : [ "obj-51", 0 ]
				}

			}
, 			{
				"patchline" : 				{
					"destination" : [ "obj-73", 0 ],
					"disabled" : 0,
					"hidden" : 0,
					"source" : [ "obj-51", 0 ]
				}

			}
, 			{
				"patchline" : 				{
					"destination" : [ "obj-36", 0 ],
					"disabled" : 0,
					"hidden" : 0,
					"source" : [ "obj-57", 0 ]
				}

			}
, 			{
				"patchline" : 				{
					"destination" : [ "obj-36", 0 ],
					"disabled" : 0,
					"hidden" : 0,
					"source" : [ "obj-59", 0 ]
				}

			}
, 			{
				"patchline" : 				{
					"destination" : [ "obj-79", 0 ],
					"disabled" : 0,
					"hidden" : 0,
					"source" : [ "obj-61", 0 ]
				}

			}
, 			{
				"patchline" : 				{
					"destination" : [ "obj-50", 0 ],
					"disabled" : 0,
					"hidden" : 0,
					"source" : [ "obj-63", 0 ]
				}

			}
, 			{
				"patchline" : 				{
					"destination" : [ "obj-179", 0 ],
					"disabled" : 0,
					"hidden" : 0,
					"source" : [ "obj-66", 0 ]
				}

			}
, 			{
				"patchline" : 				{
					"destination" : [ "obj-14", 1 ],
					"disabled" : 0,
					"hidden" : 0,
					"source" : [ "obj-7", 0 ]
				}

			}
, 			{
				"patchline" : 				{
					"destination" : [ "obj-183", 0 ],
					"disabled" : 0,
					"hidden" : 0,
					"source" : [ "obj-7", 0 ]
				}

			}
, 			{
				"patchline" : 				{
					"destination" : [ "obj-70", 0 ],
					"disabled" : 0,
					"hidden" : 0,
					"source" : [ "obj-72", 0 ]
				}

			}
, 			{
				"patchline" : 				{
					"destination" : [ "obj-72", 0 ],
					"disabled" : 0,
					"hidden" : 0,
					"source" : [ "obj-73", 1 ]
				}

			}
, 			{
				"patchline" : 				{
					"destination" : [ "obj-74", 0 ],
					"disabled" : 0,
					"hidden" : 0,
					"source" : [ "obj-73", 0 ]
				}

			}
, 			{
				"patchline" : 				{
					"destination" : [ "obj-72", 0 ],
					"disabled" : 0,
					"hidden" : 0,
					"source" : [ "obj-74", 0 ]
				}

			}
, 			{
				"patchline" : 				{
					"destination" : [ "obj-79", 0 ],
					"disabled" : 0,
					"hidden" : 0,
					"source" : [ "obj-81", 0 ]
				}

			}
, 			{
				"patchline" : 				{
					"destination" : [ "obj-81", 0 ],
					"disabled" : 0,
					"hidden" : 0,
					"source" : [ "obj-83", 0 ]
				}

			}
, 			{
				"patchline" : 				{
					"destination" : [ "obj-61", 0 ],
					"disabled" : 0,
					"hidden" : 0,
					"source" : [ "obj-84", 0 ]
				}

			}
, 			{
				"patchline" : 				{
					"destination" : [ "obj-96", 0 ],
					"disabled" : 0,
					"hidden" : 0,
					"source" : [ "obj-97", 0 ]
				}

			}
 ],
		"styles" : [ 			{
				"name" : "Audiomix",
				"default" : 				{
					"bgfillcolor" : 					{
						"type" : "gradient",
						"color1" : [ 0.376471, 0.384314, 0.4, 1.0 ],
						"color2" : [ 0.290196, 0.309804, 0.301961, 1.0 ],
						"color" : [ 0.290196, 0.309804, 0.301961, 1.0 ],
						"angle" : 270.0,
						"proportion" : 0.39
					}

				}
,
				"parentstyle" : "",
				"multi" : 0
			}
 ]
	}

}
