{
	"patcher" : 	{
		"fileversion" : 1,
		"appversion" : 		{
			"major" : 7,
			"minor" : 3,
			"revision" : 4,
			"architecture" : "x64",
			"modernui" : 1
		}
,
		"rect" : [ 34.0, 77.0, 1852.0, 929.0 ],
		"bgcolor" : [ 0.0, 0.0, 0.0, 1.0 ],
		"bglocked" : 0,
		"openinpresentation" : 1,
		"default_fontsize" : 12.0,
		"default_fontface" : 0,
		"default_fontname" : "Arial",
		"gridonopen" : 1,
		"gridsize" : [ 15.0, 15.0 ],
		"gridsnaponopen" : 1,
		"objectsnaponopen" : 1,
		"statusbarvisible" : 2,
		"toolbarvisible" : 1,
		"lefttoolbarpinned" : 0,
		"toptoolbarpinned" : 0,
		"righttoolbarpinned" : 0,
		"bottomtoolbarpinned" : 0,
		"toolbars_unpinned_last_save" : 0,
		"tallnewobj" : 0,
		"boxanimatetime" : 200,
		"enablehscroll" : 1,
		"enablevscroll" : 1,
		"devicewidth" : 0.0,
		"description" : "",
		"digest" : "",
		"tags" : "",
		"style" : "",
		"subpatcher_template" : "",
		"workspacedisabled" : 1,
		"boxes" : [ 			{
				"box" : 				{
					"id" : "obj-8",
					"maxclass" : "live.gain~",
					"numinlets" : 2,
					"numoutlets" : 5,
					"outlettype" : [ "signal", "signal", "", "float", "list" ],
					"parameter_enable" : 1,
					"patching_rect" : [ 194.0, 612.0, 48.0, 136.0 ],
					"saved_attribute_attributes" : 					{
						"valueof" : 						{
							"parameter_longname" : "live.gain~",
							"parameter_shortname" : "live.gain~",
							"parameter_type" : 0,
							"parameter_mmin" : -70.0,
							"parameter_mmax" : 6.0,
							"parameter_initial" : [ 0.0 ],
							"parameter_unitstyle" : 4
						}

					}
,
					"varname" : "live.gain~"
				}

			}
, 			{
				"box" : 				{
					"fontface" : 1,
					"fontname" : "Futura",
					"fontsize" : 18.0,
					"id" : "obj-16",
					"maxclass" : "comment",
					"numinlets" : 1,
					"numoutlets" : 0,
					"patching_rect" : [ 303.0, 269.0, 235.0, 27.0 ],
					"presentation" : 1,
					"presentation_rect" : [ 6.910393, 2.75, 177.0, 27.0 ],
					"style" : "",
					"text" : "RECORD / CROP",
					"textcolor" : [ 1.0, 1.0, 1.0, 1.0 ]
				}

			}
, 			{
				"box" : 				{
					"id" : "obj-12",
					"maxclass" : "newobj",
					"numinlets" : 1,
					"numoutlets" : 1,
					"outlettype" : [ "" ],
					"patching_rect" : [ 1031.199951, 28.0, 149.0, 22.0 ],
					"style" : "",
					"text" : "loadmess set recordbuffer"
				}

			}
, 			{
				"box" : 				{
					"id" : "obj-9",
					"maxclass" : "newobj",
					"numinlets" : 1,
					"numoutlets" : 1,
					"outlettype" : [ "" ],
					"patching_rect" : [ 687.166626, 404.960175, 133.0, 22.0 ],
					"style" : "",
					"text" : "append \\, normalize 0.9"
				}

			}
, 			{
				"box" : 				{
					"id" : "obj-14",
					"maxclass" : "newobj",
					"numinlets" : 1,
					"numoutlets" : 2,
					"outlettype" : [ "bang", "bang" ],
					"patching_rect" : [ 10.910393, 78.960175, 34.0, 22.0 ],
					"style" : "",
					"text" : "t b b"
				}

			}
, 			{
				"box" : 				{
					"id" : "obj-39",
					"maxclass" : "newobj",
					"numinlets" : 3,
					"numoutlets" : 1,
					"outlettype" : [ "signal" ],
					"patching_rect" : [ 230.4104, 209.0, 70.0, 22.0 ],
					"style" : "",
					"text" : "selector~ 2"
				}

			}
, 			{
				"box" : 				{
					"id" : "obj-38",
					"maxclass" : "newobj",
					"numinlets" : 3,
					"numoutlets" : 1,
					"outlettype" : [ "signal" ],
					"patching_rect" : [ 162.0, 209.0, 70.0, 22.0 ],
					"style" : "",
					"text" : "selector~ 2"
				}

			}
, 			{
				"box" : 				{
					"bgcolor" : [ 0.095481, 0.100396, 0.100293, 1.0 ],
					"id" : "obj-35",
					"maxclass" : "live.meter~",
					"numinlets" : 1,
					"numoutlets" : 1,
					"outlettype" : [ "list" ],
					"patching_rect" : [ 88.0, 235.0, 7.0, 96.0 ],
					"presentation" : 1,
					"presentation_rect" : [ 114.910393, 35.0, 12.0, 72.0 ],
					"slidercolor" : [ 0.095481, 0.100396, 0.100293, 1.0 ]
				}

			}
, 			{
				"box" : 				{
					"comment" : "",
					"id" : "obj-32",
					"index" : 2,
					"maxclass" : "inlet",
					"numinlets" : 0,
					"numoutlets" : 1,
					"outlettype" : [ "signal" ],
					"patching_rect" : [ 369.0, 45.460175, 30.0, 30.0 ],
					"style" : ""
				}

			}
, 			{
				"box" : 				{
					"comment" : "",
					"id" : "obj-31",
					"index" : 1,
					"maxclass" : "inlet",
					"numinlets" : 0,
					"numoutlets" : 1,
					"outlettype" : [ "signal" ],
					"patching_rect" : [ 338.0, 45.460175, 30.0, 30.0 ],
					"style" : ""
				}

			}
, 			{
				"box" : 				{
					"id" : "obj-26",
					"maxclass" : "message",
					"numinlets" : 2,
					"numoutlets" : 1,
					"outlettype" : [ "" ],
					"patching_rect" : [ 298.0, 440.0, 66.0, 22.0 ],
					"style" : "",
					"text" : "nchans $1"
				}

			}
, 			{
				"box" : 				{
					"id" : "obj-19",
					"maxclass" : "newobj",
					"numinlets" : 3,
					"numoutlets" : 1,
					"outlettype" : [ "signal" ],
					"patching_rect" : [ 287.0, 267.0, 70.0, 22.0 ],
					"style" : "",
					"text" : "selector~ 2"
				}

			}
, 			{
				"box" : 				{
					"id" : "obj-18",
					"maxclass" : "newobj",
					"numinlets" : 1,
					"numoutlets" : 1,
					"outlettype" : [ "int" ],
					"patching_rect" : [ 68.910393, 431.0, 24.0, 22.0 ],
					"style" : "",
					"text" : "t 1"
				}

			}
, 			{
				"box" : 				{
					"id" : "obj-17",
					"maxclass" : "newobj",
					"numinlets" : 1,
					"numoutlets" : 1,
					"outlettype" : [ "int" ],
					"patching_rect" : [ 51.910393, 431.0, 24.0, 22.0 ],
					"style" : "",
					"text" : "t 2"
				}

			}
, 			{
				"box" : 				{
					"id" : "obj-3",
					"maxclass" : "newobj",
					"numinlets" : 2,
					"numoutlets" : 2,
					"outlettype" : [ "bang", "" ],
					"patching_rect" : [ 51.910393, 395.0, 36.0, 22.0 ],
					"style" : "",
					"text" : "sel 0"
				}

			}
, 			{
				"box" : 				{
					"id" : "obj-11",
					"maxclass" : "newobj",
					"numinlets" : 1,
					"numoutlets" : 1,
					"outlettype" : [ "" ],
					"patcher" : 					{
						"fileversion" : 1,
						"appversion" : 						{
							"major" : 7,
							"minor" : 3,
							"revision" : 4,
							"architecture" : "x64",
							"modernui" : 1
						}
,
						"rect" : [ 561.0, 115.0, 351.0, 480.0 ],
						"bglocked" : 0,
						"openinpresentation" : 0,
						"default_fontsize" : 12.0,
						"default_fontface" : 0,
						"default_fontname" : "Arial",
						"gridonopen" : 1,
						"gridsize" : [ 15.0, 15.0 ],
						"gridsnaponopen" : 1,
						"objectsnaponopen" : 1,
						"statusbarvisible" : 2,
						"toolbarvisible" : 1,
						"lefttoolbarpinned" : 0,
						"toptoolbarpinned" : 0,
						"righttoolbarpinned" : 0,
						"bottomtoolbarpinned" : 0,
						"toolbars_unpinned_last_save" : 0,
						"tallnewobj" : 0,
						"boxanimatetime" : 200,
						"enablehscroll" : 1,
						"enablevscroll" : 1,
						"devicewidth" : 0.0,
						"description" : "",
						"digest" : "",
						"tags" : "",
						"style" : "",
						"subpatcher_template" : "",
						"boxes" : [ 							{
								"box" : 								{
									"id" : "obj-8",
									"maxclass" : "newobj",
									"numinlets" : 2,
									"numoutlets" : 2,
									"outlettype" : [ "", "" ],
									"patching_rect" : [ 145.0, 202.0, 57.0, 22.0 ],
									"style" : "",
									"text" : "route Off"
								}

							}
, 							{
								"box" : 								{
									"id" : "obj-6",
									"maxclass" : "newobj",
									"numinlets" : 2,
									"numoutlets" : 2,
									"outlettype" : [ "", "" ],
									"patching_rect" : [ 116.0, 158.0, 48.0, 22.0 ],
									"style" : "",
									"text" : "route 0"
								}

							}
, 							{
								"box" : 								{
									"id" : "obj-13",
									"maxclass" : "newobj",
									"numinlets" : 1,
									"numoutlets" : 1,
									"outlettype" : [ "" ],
									"patching_rect" : [ 145.0, 335.0, 98.0, 22.0 ],
									"style" : "",
									"text" : "prepend append"
								}

							}
, 							{
								"box" : 								{
									"id" : "obj-7",
									"maxclass" : "message",
									"numinlets" : 2,
									"numoutlets" : 1,
									"outlettype" : [ "" ],
									"patching_rect" : [ 145.0, 245.0, 64.0, 22.0 ],
									"style" : "",
									"text" : "DroneBox"
								}

							}
, 							{
								"box" : 								{
									"id" : "obj-3",
									"maxclass" : "newobj",
									"numinlets" : 2,
									"numoutlets" : 2,
									"outlettype" : [ "", "" ],
									"patching_rect" : [ 116.0, 105.0, 189.0, 22.0 ],
									"style" : "",
									"text" : "route append"
								}

							}
, 							{
								"box" : 								{
									"comment" : "",
									"id" : "obj-2",
									"index" : 1,
									"maxclass" : "outlet",
									"numinlets" : 1,
									"numoutlets" : 0,
									"patching_rect" : [ 145.0, 437.0, 30.0, 30.0 ],
									"style" : ""
								}

							}
, 							{
								"box" : 								{
									"comment" : "",
									"id" : "obj-1",
									"index" : 1,
									"maxclass" : "inlet",
									"numinlets" : 0,
									"numoutlets" : 1,
									"outlettype" : [ "" ],
									"patching_rect" : [ 116.0, 18.0, 30.0, 30.0 ],
									"style" : ""
								}

							}
 ],
						"lines" : [ 							{
								"patchline" : 								{
									"destination" : [ "obj-3", 0 ],
									"source" : [ "obj-1", 0 ]
								}

							}
, 							{
								"patchline" : 								{
									"destination" : [ "obj-2", 0 ],
									"source" : [ "obj-13", 0 ]
								}

							}
, 							{
								"patchline" : 								{
									"destination" : [ "obj-2", 0 ],
									"midpoints" : [ 295.5, 417.0, 154.5, 417.0 ],
									"source" : [ "obj-3", 1 ]
								}

							}
, 							{
								"patchline" : 								{
									"destination" : [ "obj-6", 0 ],
									"source" : [ "obj-3", 0 ]
								}

							}
, 							{
								"patchline" : 								{
									"destination" : [ "obj-8", 0 ],
									"source" : [ "obj-6", 1 ]
								}

							}
, 							{
								"patchline" : 								{
									"destination" : [ "obj-13", 0 ],
									"source" : [ "obj-7", 0 ]
								}

							}
, 							{
								"patchline" : 								{
									"destination" : [ "obj-13", 0 ],
									"midpoints" : [ 192.5, 238.0, 219.0, 238.0, 219.0, 321.0, 154.5, 321.0 ],
									"source" : [ "obj-8", 1 ]
								}

							}
, 							{
								"patchline" : 								{
									"destination" : [ "obj-7", 0 ],
									"source" : [ "obj-8", 0 ]
								}

							}
 ]
					}
,
					"patching_rect" : [ 51.910393, 243.0, 18.0, 22.0 ],
					"saved_object_attributes" : 					{
						"description" : "",
						"digest" : "",
						"globalpatchername" : "",
						"style" : "",
						"tags" : ""
					}
,
					"style" : "",
					"text" : "p"
				}

			}
, 			{
				"box" : 				{
					"id" : "obj-7",
					"items" : [ "Off", ",", 1, "Input 1", ",", 2, "Input 2" ],
					"maxclass" : "umenu",
					"numinlets" : 1,
					"numoutlets" : 3,
					"outlettype" : [ "int", "", "" ],
					"parameter_enable" : 0,
					"patching_rect" : [ 19.910393, 545.0, 100.0, 22.0 ],
					"style" : ""
				}

			}
, 			{
				"box" : 				{
					"angle" : 270.0,
					"grad1" : [ 0.095481, 0.100396, 0.100293, 1.0 ],
					"grad2" : [ 0.095481, 0.100396, 0.100293, 1.0 ],
					"id" : "obj-2",
					"maxclass" : "panel",
					"mode" : 1,
					"numinlets" : 1,
					"numoutlets" : 0,
					"patching_rect" : [ 848.0, 122.25, 71.0, 42.460175 ],
					"presentation" : 1,
					"presentation_rect" : [ 2.910393, 2.75, 490.0896, 28.75 ],
					"proportion" : 0.39,
					"rounded" : 0,
					"style" : ""
				}

			}
, 			{
				"box" : 				{
					"id" : "obj-114",
					"linecount" : 2,
					"maxclass" : "comment",
					"numinlets" : 1,
					"numoutlets" : 0,
					"patching_rect" : [ 1217.0, 330.0, 150.0, 34.0 ],
					"presentation" : 1,
					"presentation_linecount" : 2,
					"presentation_rect" : [ 419.0, 35.875, 73.0, 34.0 ],
					"style" : "",
					"text" : "CROP \nAND SEND",
					"textcolor" : [ 0.862745, 0.870588, 0.878431, 1.0 ]
				}

			}
, 			{
				"box" : 				{
					"id" : "obj-122",
					"maxclass" : "message",
					"numinlets" : 2,
					"numoutlets" : 1,
					"outlettype" : [ "" ],
					"patching_rect" : [ 913.0, 263.0, 116.0, 22.0 ],
					"style" : "",
					"text" : "duplicate cropbuffer"
				}

			}
, 			{
				"box" : 				{
					"id" : "obj-119",
					"maxclass" : "message",
					"numinlets" : 2,
					"numoutlets" : 1,
					"outlettype" : [ "" ],
					"patching_rect" : [ 526.0, 511.0, 50.0, 22.0 ],
					"style" : "",
					"text" : "replace"
				}

			}
, 			{
				"box" : 				{
					"id" : "obj-113",
					"maxclass" : "comment",
					"numinlets" : 1,
					"numoutlets" : 0,
					"patching_rect" : [ 510.0, 375.0, 150.0, 20.0 ],
					"presentation" : 1,
					"presentation_rect" : [ 419.0, 79.0, 69.0, 20.0 ],
					"style" : "",
					"text" : "READ",
					"textcolor" : [ 0.862745, 0.870588, 0.878431, 1.0 ]
				}

			}
, 			{
				"box" : 				{
					"angle" : 270.0,
					"grad1" : [ 0.095481, 0.100396, 0.100293, 1.0 ],
					"grad2" : [ 0.095481, 0.100396, 0.100293, 1.0 ],
					"id" : "obj-116",
					"maxclass" : "panel",
					"mode" : 1,
					"numinlets" : 1,
					"numoutlets" : 0,
					"patching_rect" : [ 799.0, 53.0, 36.0, 26.0 ],
					"presentation" : 1,
					"presentation_rect" : [ 422.0, 35.0, 68.0, 34.75 ],
					"proportion" : 0.39,
					"rounded" : 0,
					"style" : ""
				}

			}
, 			{
				"box" : 				{
					"bgcolor" : [ 0.095481, 0.100396, 0.100293, 1.0 ],
					"blinkcolor" : [ 0.952941, 0.564706, 0.098039, 1.0 ],
					"id" : "obj-111",
					"maxclass" : "button",
					"numinlets" : 1,
					"numoutlets" : 1,
					"outlettype" : [ "bang" ],
					"patching_rect" : [ 526.0, 477.0, 24.0, 24.0 ],
					"presentation" : 1,
					"presentation_rect" : [ 390.0, 72.0, 35.0, 35.0 ],
					"style" : ""
				}

			}
, 			{
				"box" : 				{
					"id" : "obj-110",
					"maxclass" : "message",
					"numinlets" : 2,
					"numoutlets" : 1,
					"outlettype" : [ "" ],
					"patching_rect" : [ 356.0, 613.0, 43.0, 22.0 ],
					"style" : "",
					"text" : "set $1"
				}

			}
, 			{
				"box" : 				{
					"id" : "obj-108",
					"maxclass" : "comment",
					"numinlets" : 1,
					"numoutlets" : 0,
					"patching_rect" : [ 656.0, 593.0, 150.0, 20.0 ],
					"presentation" : 1,
					"presentation_rect" : [ 130.0, 88.5, 258.0, 20.0 ],
					"style" : "",
					"text" : "3529.43",
					"textcolor" : [ 1.0, 1.0, 1.0, 1.0 ]
				}

			}
, 			{
				"box" : 				{
					"id" : "obj-107",
					"maxclass" : "newobj",
					"numinlets" : 1,
					"numoutlets" : 4,
					"outlettype" : [ "clearlow", "bang", "bang", "bang" ],
					"patching_rect" : [ 889.0, 204.0, 91.0, 22.0 ],
					"style" : "",
					"text" : "t clearlow b b b"
				}

			}
, 			{
				"box" : 				{
					"id" : "obj-103",
					"maxclass" : "message",
					"numinlets" : 2,
					"numoutlets" : 1,
					"outlettype" : [ "" ],
					"patching_rect" : [ 961.0, 372.0, 126.0, 22.0 ],
					"style" : "",
					"text" : "duplicate recordbuffer"
				}

			}
, 			{
				"box" : 				{
					"id" : "obj-100",
					"maxclass" : "message",
					"numinlets" : 2,
					"numoutlets" : 1,
					"outlettype" : [ "" ],
					"patching_rect" : [ 937.0, 341.0, 208.0, 22.0 ],
					"style" : "",
					"text" : "crop 2010.952451 2010.952451"
				}

			}
, 			{
				"box" : 				{
					"bgcolor" : [ 0.095481, 0.100396, 0.100293, 1.0 ],
					"blinkcolor" : [ 0.952941, 0.564706, 0.098039, 1.0 ],
					"id" : "obj-98",
					"maxclass" : "button",
					"numinlets" : 1,
					"numoutlets" : 1,
					"outlettype" : [ "bang" ],
					"patching_rect" : [ 889.0, 33.0, 24.0, 24.0 ],
					"presentation" : 1,
					"presentation_rect" : [ 390.0, 35.0, 34.75, 34.75 ],
					"style" : ""
				}

			}
, 			{
				"box" : 				{
					"id" : "obj-96",
					"maxclass" : "newobj",
					"numinlets" : 1,
					"numoutlets" : 2,
					"outlettype" : [ "float", "bang" ],
					"patching_rect" : [ 889.0, 411.960175, 105.0, 22.0 ],
					"style" : "",
					"text" : "buffer~ cropbuffer"
				}

			}
, 			{
				"box" : 				{
					"id" : "obj-90",
					"maxclass" : "newobj",
					"numinlets" : 1,
					"numoutlets" : 0,
					"patching_rect" : [ 913.0, 310.460175, 106.0, 22.0 ],
					"style" : "",
					"text" : "s samplemanager"
				}

			}
, 			{
				"box" : 				{
					"id" : "obj-88",
					"maxclass" : "newobj",
					"numinlets" : 1,
					"numoutlets" : 1,
					"outlettype" : [ "" ],
					"patching_rect" : [ 1126.0, 274.960175, 81.0, 22.0 ],
					"style" : "",
					"text" : "prepend crop"
				}

			}
, 			{
				"box" : 				{
					"id" : "obj-87",
					"maxclass" : "newobj",
					"numinlets" : 2,
					"numoutlets" : 1,
					"outlettype" : [ "" ],
					"patching_rect" : [ 1126.0, 218.960175, 66.400009, 22.0 ],
					"style" : "",
					"text" : "pack 0. 0."
				}

			}
, 			{
				"box" : 				{
					"id" : "obj-80",
					"maxclass" : "newobj",
					"numinlets" : 1,
					"numoutlets" : 1,
					"outlettype" : [ "" ],
					"patching_rect" : [ 356.0, 584.0, 56.0, 22.0 ],
					"style" : "",
					"text" : "deferlow"
				}

			}
, 			{
				"box" : 				{
					"id" : "obj-79",
					"maxclass" : "newobj",
					"numinlets" : 2,
					"numoutlets" : 1,
					"outlettype" : [ "float" ],
					"patching_rect" : [ 356.0, 554.0, 66.0, 22.0 ],
					"style" : "",
					"text" : "snapshot~"
				}

			}
, 			{
				"box" : 				{
					"id" : "obj-78",
					"maxclass" : "newobj",
					"numinlets" : 2,
					"numoutlets" : 1,
					"outlettype" : [ "bang" ],
					"patching_rect" : [ 356.0, 505.0, 65.0, 22.0 ],
					"style" : "",
					"text" : "qmetro 25"
				}

			}
, 			{
				"box" : 				{
					"bgcolor" : [ 0.095481, 0.100396, 0.100293, 1.0 ],
					"id" : "obj-75",
					"maxclass" : "led",
					"numinlets" : 1,
					"numoutlets" : 1,
					"offcolor" : [ 0.095481, 0.100396, 0.100293, 1.0 ],
					"oncolor" : [ 0.784314, 0.145098, 0.023529, 1.0 ],
					"outlettype" : [ "int" ],
					"parameter_enable" : 0,
					"patching_rect" : [ 489.0, 159.0, 24.0, 24.0 ],
					"presentation" : 1,
					"presentation_rect" : [ 52.910393, 35.0, 46.0, 46.0 ],
					"style" : ""
				}

			}
, 			{
				"box" : 				{
					"id" : "obj-74",
					"maxclass" : "newobj",
					"numinlets" : 2,
					"numoutlets" : 1,
					"outlettype" : [ "bang" ],
					"patching_rect" : [ 489.0, 74.0, 65.0, 22.0 ],
					"style" : "",
					"text" : "metro 500"
				}

			}
, 			{
				"box" : 				{
					"bgcolor" : [ 0.095481, 0.100396, 0.100293, 1.0 ],
					"id" : "obj-73",
					"maxclass" : "live.meter~",
					"numinlets" : 1,
					"numoutlets" : 1,
					"outlettype" : [ "list" ],
					"patching_rect" : [ 77.5, 235.0, 6.0, 96.0 ],
					"presentation" : 1,
					"presentation_rect" : [ 100.910393, 35.0, 12.0, 72.0 ],
					"slidercolor" : [ 0.095481, 0.100396, 0.100293, 1.0 ]
				}

			}
, 			{
				"box" : 				{
					"id" : "obj-72",
					"maxclass" : "newobj",
					"numinlets" : 1,
					"numoutlets" : 1,
					"outlettype" : [ "bang" ],
					"patching_rect" : [ 10.910393, 41.0, 60.0, 22.0 ],
					"style" : "",
					"text" : "loadbang"
				}

			}
, 			{
				"box" : 				{
					"id" : "obj-71",
					"maxclass" : "newobj",
					"numinlets" : 2,
					"numoutlets" : 2,
					"outlettype" : [ "bang", "" ],
					"patching_rect" : [ 114.910393, 73.0, 36.0, 22.0 ],
					"style" : "",
					"text" : "sel 1"
				}

			}
, 			{
				"box" : 				{
					"id" : "obj-70",
					"maxclass" : "newobj",
					"numinlets" : 1,
					"numoutlets" : 4,
					"outlettype" : [ "int", "float", "int", "int" ],
					"patching_rect" : [ 114.910393, 41.0, 63.0, 22.0 ],
					"style" : "",
					"text" : "dspstate~"
				}

			}
, 			{
				"box" : 				{
					"bgfillcolor_angle" : 270.0,
					"bgfillcolor_autogradient" : 0,
					"bgfillcolor_color" : [ 0.290196, 0.309804, 0.301961, 1.0 ],
					"bgfillcolor_color1" : [ 0.095481, 0.100396, 0.100293, 1.0 ],
					"bgfillcolor_color2" : [ 0.095481, 0.100396, 0.100293, 1.0 ],
					"bgfillcolor_proportion" : 0.39,
					"bgfillcolor_type" : "gradient",
					"elementcolor" : [ 0.095481, 0.100396, 0.100293, 1.0 ],
					"id" : "obj-69",
					"items" : [ "DroneBox", ",", 1, "Left Input", ",", 2, "Right Input" ],
					"maxclass" : "umenu",
					"numinlets" : 1,
					"numoutlets" : 3,
					"outlettype" : [ "int", "", "" ],
					"parameter_enable" : 0,
					"patching_rect" : [ 51.910393, 340.0, 100.0, 22.0 ],
					"presentation" : 1,
					"presentation_rect" : [ 2.910393, 85.0, 96.0, 22.0 ],
					"style" : ""
				}

			}
, 			{
				"box" : 				{
					"id" : "obj-24",
					"maxclass" : "button",
					"numinlets" : 1,
					"numoutlets" : 1,
					"outlettype" : [ "bang" ],
					"patching_rect" : [ 50.910393, 111.960175, 20.0, 20.0 ],
					"style" : ""
				}

			}
, 			{
				"box" : 				{
					"fontname" : "Arial",
					"fontsize" : 13.0,
					"id" : "obj-25",
					"maxclass" : "newobj",
					"numinlets" : 2,
					"numoutlets" : 2,
					"outlettype" : [ "", "int" ],
					"patching_rect" : [ 50.910393, 160.360657, 103.0, 23.0 ],
					"style" : "",
					"text" : "adstatus input 1"
				}

			}
, 			{
				"box" : 				{
					"id" : "obj-67",
					"maxclass" : "newobj",
					"numinlets" : 1,
					"numoutlets" : 1,
					"outlettype" : [ "" ],
					"patching_rect" : [ 427.0, 580.0, 79.0, 22.0 ],
					"style" : "",
					"text" : "prepend size"
				}

			}
, 			{
				"box" : 				{
					"id" : "obj-61",
					"maxclass" : "newobj",
					"numinlets" : 2,
					"numoutlets" : 1,
					"outlettype" : [ "float" ],
					"patching_rect" : [ 427.0, 554.0, 66.0, 22.0 ],
					"style" : "",
					"text" : "snapshot~"
				}

			}
, 			{
				"box" : 				{
					"id" : "obj-56",
					"maxclass" : "newobj",
					"numinlets" : 1,
					"numoutlets" : 2,
					"outlettype" : [ "int", "bang" ],
					"patching_rect" : [ 427.0, 105.0, 34.0, 22.0 ],
					"style" : "",
					"text" : "t 1 b"
				}

			}
, 			{
				"box" : 				{
					"id" : "obj-55",
					"maxclass" : "newobj",
					"numinlets" : 1,
					"numoutlets" : 3,
					"outlettype" : [ "bang", "bang", "int" ],
					"patching_rect" : [ 440.5, 322.0, 44.0, 22.0 ],
					"style" : "",
					"text" : "t b b 0"
				}

			}
, 			{
				"box" : 				{
					"id" : "obj-54",
					"maxclass" : "newobj",
					"numinlets" : 3,
					"numoutlets" : 3,
					"outlettype" : [ "bang", "bang", "" ],
					"patching_rect" : [ 427.0, 74.0, 46.0, 22.0 ],
					"style" : "",
					"text" : "sel 1 0"
				}

			}
, 			{
				"box" : 				{
					"id" : "obj-53",
					"maxclass" : "newobj",
					"numinlets" : 1,
					"numoutlets" : 1,
					"outlettype" : [ "" ],
					"patching_rect" : [ 670.666626, 372.0, 82.0, 22.0 ],
					"style" : "",
					"text" : "prepend read"
				}

			}
, 			{
				"box" : 				{
					"id" : "obj-52",
					"linecount" : 2,
					"maxclass" : "message",
					"numinlets" : 2,
					"numoutlets" : 1,
					"outlettype" : [ "" ],
					"patching_rect" : [ 595.0, 477.0, 535.0, 36.0 ],
					"style" : "",
					"text" : "read C:/Users/Jonas/Dropbox/h_da_Ohland/DroneBox/patchers/record_1_2_2018_12_9_27.wav, normalize 0.9"
				}

			}
, 			{
				"box" : 				{
					"id" : "obj-48",
					"maxclass" : "newobj",
					"numinlets" : 1,
					"numoutlets" : 1,
					"outlettype" : [ "" ],
					"patching_rect" : [ 575.0, 330.0, 59.0, 22.0 ],
					"style" : "",
					"text" : "tosymbol"
				}

			}
, 			{
				"box" : 				{
					"id" : "obj-45",
					"maxclass" : "newobj",
					"numinlets" : 1,
					"numoutlets" : 2,
					"outlettype" : [ "", "" ],
					"patching_rect" : [ 641.0, 213.0, 69.0, 22.0 ],
					"save" : [ "#N", "thispatcher", ";", "#Q", "end", ";" ],
					"style" : "",
					"text" : "thispatcher"
				}

			}
, 			{
				"box" : 				{
					"id" : "obj-43",
					"maxclass" : "newobj",
					"numinlets" : 1,
					"numoutlets" : 1,
					"outlettype" : [ "" ],
					"patching_rect" : [ 575.0, 395.0, 82.0, 22.0 ],
					"style" : "",
					"text" : "append wave"
				}

			}
, 			{
				"box" : 				{
					"id" : "obj-42",
					"maxclass" : "newobj",
					"numinlets" : 1,
					"numoutlets" : 1,
					"outlettype" : [ "" ],
					"patching_rect" : [ 575.0, 372.0, 85.0, 22.0 ],
					"style" : "",
					"text" : "prepend open"
				}

			}
, 			{
				"box" : 				{
					"id" : "obj-34",
					"maxclass" : "newobj",
					"numinlets" : 1,
					"numoutlets" : 6,
					"outlettype" : [ "int", "int", "int", "int", "int", "int" ],
					"patching_rect" : [ 575.0, 256.0, 249.0, 22.0 ],
					"style" : "",
					"text" : "unpack 0 0 0 0 0 0"
				}

			}
, 			{
				"box" : 				{
					"id" : "obj-33",
					"maxclass" : "newobj",
					"numinlets" : 7,
					"numoutlets" : 1,
					"outlettype" : [ "" ],
					"patching_rect" : [ 575.0, 298.0, 266.0, 22.0 ],
					"style" : "",
					"text" : "sprintf %srecord_%d_%d_%d_%d_%d_%d.wav"
				}

			}
, 			{
				"box" : 				{
					"id" : "obj-23",
					"maxclass" : "newobj",
					"numinlets" : 2,
					"numoutlets" : 2,
					"outlettype" : [ "", "" ],
					"patching_rect" : [ 719.5, 213.0, 41.0, 22.0 ],
					"style" : "",
					"text" : "zl.join"
				}

			}
, 			{
				"box" : 				{
					"id" : "obj-20",
					"maxclass" : "newobj",
					"numinlets" : 1,
					"numoutlets" : 4,
					"outlettype" : [ "path", "bang", "time", "date" ],
					"patching_rect" : [ 670.666626, 139.0, 103.0, 22.0 ],
					"style" : "",
					"text" : "t path b time date"
				}

			}
, 			{
				"box" : 				{
					"id" : "obj-13",
					"maxclass" : "newobj",
					"numinlets" : 1,
					"numoutlets" : 3,
					"outlettype" : [ "list", "list", "int" ],
					"patching_rect" : [ 733.666626, 178.0, 40.0, 22.0 ],
					"style" : "",
					"text" : "date"
				}

			}
, 			{
				"box" : 				{
					"id" : "obj-10",
					"maxclass" : "newobj",
					"numinlets" : 2,
					"numoutlets" : 1,
					"outlettype" : [ "signal" ],
					"patching_rect" : [ 427.0, 505.0, 71.0, 22.0 ],
					"style" : "",
					"text" : "sfrecord~ 2"
				}

			}
, 			{
				"box" : 				{
					"id" : "obj-6",
					"maxclass" : "newobj",
					"numinlets" : 1,
					"numoutlets" : 1,
					"outlettype" : [ "signal" ],
					"patching_rect" : [ 249.0, 94.0, 47.0, 22.0 ],
					"style" : "",
					"text" : "adc~ 1"
				}

			}
, 			{
				"box" : 				{
					"bgcolor" : [ 0.095481, 0.100396, 0.100293, 1.0 ],
					"buffername" : "recordbuffer",
					"gridcolor" : [ 0.376471, 0.384314, 0.4, 0.0 ],
					"id" : "obj-5",
					"labels" : 0,
					"maxclass" : "waveform~",
					"norulerclick" : 0,
					"numinlets" : 5,
					"numoutlets" : 6,
					"outlettype" : [ "float", "float", "float", "float", "list", "" ],
					"patching_rect" : [ 1031.199951, 108.960175, 256.0, 64.0 ],
					"presentation" : 1,
					"presentation_rect" : [ 130.0, 35.0, 258.0, 72.0 ],
					"ruler" : 0,
					"selectioncolor" : [ 0.952941, 0.564706, 0.098039, 1.0 ],
					"setmode" : 1,
					"style" : "",
					"vticks" : 0,
					"waveformcolor" : [ 1.0, 1.0, 1.0, 1.0 ]
				}

			}
, 			{
				"box" : 				{
					"bgcolor" : [ 0.095481, 0.100396, 0.100293, 1.0 ],
					"id" : "obj-4",
					"maxclass" : "toggle",
					"numinlets" : 1,
					"numoutlets" : 1,
					"outlettype" : [ "int" ],
					"parameter_enable" : 0,
					"patching_rect" : [ 427.0, 16.0, 24.0, 24.0 ],
					"presentation" : 1,
					"presentation_rect" : [ 2.910393, 35.0, 46.0, 46.0 ],
					"style" : ""
				}

			}
, 			{
				"box" : 				{
					"id" : "obj-1",
					"maxclass" : "newobj",
					"numinlets" : 1,
					"numoutlets" : 2,
					"outlettype" : [ "float", "bang" ],
					"patching_rect" : [ 427.0, 630.0, 116.0, 22.0 ],
					"style" : "",
					"text" : "buffer~ recordbuffer"
				}

			}
, 			{
				"box" : 				{
					"angle" : 270.0,
					"grad1" : [ 0.095481, 0.100396, 0.100293, 1.0 ],
					"grad2" : [ 0.095481, 0.100396, 0.100293, 1.0 ],
					"id" : "obj-115",
					"maxclass" : "panel",
					"mode" : 1,
					"numinlets" : 1,
					"numoutlets" : 0,
					"patching_rect" : [ 676.166626, 33.0, 71.0, 42.460175 ],
					"presentation" : 1,
					"presentation_rect" : [ 419.0, 72.0, 71.0, 35.0 ],
					"proportion" : 0.39,
					"rounded" : 0,
					"style" : ""
				}

			}
 ],
		"lines" : [ 			{
				"patchline" : 				{
					"destination" : [ "obj-61", 0 ],
					"order" : 0,
					"source" : [ "obj-10", 0 ]
				}

			}
, 			{
				"patchline" : 				{
					"destination" : [ "obj-79", 0 ],
					"order" : 1,
					"source" : [ "obj-10", 0 ]
				}

			}
, 			{
				"patchline" : 				{
					"destination" : [ "obj-96", 0 ],
					"source" : [ "obj-100", 0 ]
				}

			}
, 			{
				"patchline" : 				{
					"destination" : [ "obj-96", 0 ],
					"source" : [ "obj-103", 0 ]
				}

			}
, 			{
				"patchline" : 				{
					"destination" : [ "obj-100", 0 ],
					"source" : [ "obj-107", 2 ]
				}

			}
, 			{
				"patchline" : 				{
					"destination" : [ "obj-103", 0 ],
					"source" : [ "obj-107", 3 ]
				}

			}
, 			{
				"patchline" : 				{
					"destination" : [ "obj-122", 0 ],
					"source" : [ "obj-107", 1 ]
				}

			}
, 			{
				"patchline" : 				{
					"destination" : [ "obj-96", 0 ],
					"source" : [ "obj-107", 0 ]
				}

			}
, 			{
				"patchline" : 				{
					"destination" : [ "obj-69", 0 ],
					"source" : [ "obj-11", 0 ]
				}

			}
, 			{
				"patchline" : 				{
					"destination" : [ "obj-108", 0 ],
					"source" : [ "obj-110", 0 ]
				}

			}
, 			{
				"patchline" : 				{
					"destination" : [ "obj-119", 0 ],
					"source" : [ "obj-111", 0 ]
				}

			}
, 			{
				"patchline" : 				{
					"destination" : [ "obj-1", 0 ],
					"source" : [ "obj-119", 0 ]
				}

			}
, 			{
				"patchline" : 				{
					"destination" : [ "obj-5", 0 ],
					"source" : [ "obj-12", 0 ]
				}

			}
, 			{
				"patchline" : 				{
					"destination" : [ "obj-90", 0 ],
					"source" : [ "obj-122", 0 ]
				}

			}
, 			{
				"patchline" : 				{
					"destination" : [ "obj-23", 1 ],
					"source" : [ "obj-13", 1 ]
				}

			}
, 			{
				"patchline" : 				{
					"destination" : [ "obj-23", 0 ],
					"source" : [ "obj-13", 0 ]
				}

			}
, 			{
				"patchline" : 				{
					"destination" : [ "obj-24", 0 ],
					"source" : [ "obj-14", 1 ]
				}

			}
, 			{
				"patchline" : 				{
					"destination" : [ "obj-69", 0 ],
					"source" : [ "obj-14", 0 ]
				}

			}
, 			{
				"patchline" : 				{
					"destination" : [ "obj-19", 0 ],
					"order" : 1,
					"source" : [ "obj-17", 0 ]
				}

			}
, 			{
				"patchline" : 				{
					"destination" : [ "obj-26", 0 ],
					"order" : 0,
					"source" : [ "obj-17", 0 ]
				}

			}
, 			{
				"patchline" : 				{
					"destination" : [ "obj-38", 0 ],
					"midpoints" : [ 61.410393, 490.0, 162.0, 490.0, 162.0, 243.0, 147.0, 243.0, 147.0, 200.0, 171.5, 200.0 ],
					"order" : 3,
					"source" : [ "obj-17", 0 ]
				}

			}
, 			{
				"patchline" : 				{
					"destination" : [ "obj-39", 0 ],
					"midpoints" : [ 61.410393, 489.0, 162.0, 489.0, 162.0, 243.0, 147.0, 243.0, 147.0, 190.0, 239.9104, 190.0 ],
					"order" : 2,
					"source" : [ "obj-17", 0 ]
				}

			}
, 			{
				"patchline" : 				{
					"destination" : [ "obj-19", 0 ],
					"order" : 1,
					"source" : [ "obj-18", 0 ]
				}

			}
, 			{
				"patchline" : 				{
					"destination" : [ "obj-26", 0 ],
					"order" : 0,
					"source" : [ "obj-18", 0 ]
				}

			}
, 			{
				"patchline" : 				{
					"destination" : [ "obj-38", 0 ],
					"midpoints" : [ 78.410393, 478.0, 162.0, 478.0, 162.0, 243.0, 147.0, 243.0, 147.0, 204.0, 171.5, 204.0 ],
					"order" : 3,
					"source" : [ "obj-18", 0 ]
				}

			}
, 			{
				"patchline" : 				{
					"destination" : [ "obj-39", 0 ],
					"midpoints" : [ 78.410393, 478.0, 162.0, 478.0, 162.0, 243.0, 147.0, 243.0, 147.0, 195.0, 239.9104, 195.0 ],
					"order" : 2,
					"source" : [ "obj-18", 0 ]
				}

			}
, 			{
				"patchline" : 				{
					"destination" : [ "obj-10", 0 ],
					"midpoints" : [ 296.5, 367.0, 436.5, 367.0 ],
					"source" : [ "obj-19", 0 ]
				}

			}
, 			{
				"patchline" : 				{
					"destination" : [ "obj-13", 0 ],
					"source" : [ "obj-20", 3 ]
				}

			}
, 			{
				"patchline" : 				{
					"destination" : [ "obj-13", 0 ],
					"source" : [ "obj-20", 2 ]
				}

			}
, 			{
				"patchline" : 				{
					"destination" : [ "obj-23", 0 ],
					"source" : [ "obj-20", 1 ]
				}

			}
, 			{
				"patchline" : 				{
					"destination" : [ "obj-45", 0 ],
					"source" : [ "obj-20", 0 ]
				}

			}
, 			{
				"patchline" : 				{
					"destination" : [ "obj-34", 0 ],
					"midpoints" : [ 729.0, 248.0, 584.5, 248.0 ],
					"source" : [ "obj-23", 0 ]
				}

			}
, 			{
				"patchline" : 				{
					"destination" : [ "obj-25", 0 ],
					"source" : [ "obj-24", 0 ]
				}

			}
, 			{
				"patchline" : 				{
					"destination" : [ "obj-11", 0 ],
					"source" : [ "obj-25", 0 ]
				}

			}
, 			{
				"patchline" : 				{
					"destination" : [ "obj-10", 0 ],
					"source" : [ "obj-26", 0 ]
				}

			}
, 			{
				"patchline" : 				{
					"destination" : [ "obj-17", 0 ],
					"source" : [ "obj-3", 0 ]
				}

			}
, 			{
				"patchline" : 				{
					"destination" : [ "obj-18", 0 ],
					"source" : [ "obj-3", 1 ]
				}

			}
, 			{
				"patchline" : 				{
					"destination" : [ "obj-19", 2 ],
					"order" : 0,
					"source" : [ "obj-31", 0 ]
				}

			}
, 			{
				"patchline" : 				{
					"destination" : [ "obj-38", 2 ],
					"order" : 1,
					"source" : [ "obj-31", 0 ]
				}

			}
, 			{
				"patchline" : 				{
					"destination" : [ "obj-10", 1 ],
					"midpoints" : [ 378.5, 190.0, 488.0, 190.0, 488.0, 492.0, 488.5, 492.0 ],
					"order" : 0,
					"source" : [ "obj-32", 0 ]
				}

			}
, 			{
				"patchline" : 				{
					"destination" : [ "obj-39", 2 ],
					"order" : 1,
					"source" : [ "obj-32", 0 ]
				}

			}
, 			{
				"patchline" : 				{
					"destination" : [ "obj-48", 0 ],
					"source" : [ "obj-33", 0 ]
				}

			}
, 			{
				"patchline" : 				{
					"destination" : [ "obj-33", 6 ],
					"source" : [ "obj-34", 5 ]
				}

			}
, 			{
				"patchline" : 				{
					"destination" : [ "obj-33", 5 ],
					"source" : [ "obj-34", 4 ]
				}

			}
, 			{
				"patchline" : 				{
					"destination" : [ "obj-33", 4 ],
					"source" : [ "obj-34", 3 ]
				}

			}
, 			{
				"patchline" : 				{
					"destination" : [ "obj-33", 3 ],
					"source" : [ "obj-34", 2 ]
				}

			}
, 			{
				"patchline" : 				{
					"destination" : [ "obj-33", 1 ],
					"source" : [ "obj-34", 1 ]
				}

			}
, 			{
				"patchline" : 				{
					"destination" : [ "obj-33", 2 ],
					"source" : [ "obj-34", 0 ]
				}

			}
, 			{
				"patchline" : 				{
					"destination" : [ "obj-73", 0 ],
					"source" : [ "obj-38", 0 ]
				}

			}
, 			{
				"patchline" : 				{
					"destination" : [ "obj-35", 0 ],
					"source" : [ "obj-39", 0 ]
				}

			}
, 			{
				"patchline" : 				{
					"destination" : [ "obj-54", 0 ],
					"order" : 1,
					"source" : [ "obj-4", 0 ]
				}

			}
, 			{
				"patchline" : 				{
					"destination" : [ "obj-74", 0 ],
					"order" : 0,
					"source" : [ "obj-4", 0 ]
				}

			}
, 			{
				"patchline" : 				{
					"destination" : [ "obj-78", 0 ],
					"midpoints" : [ 436.5, 61.0, 417.0, 61.0, 417.0, 490.0, 365.5, 490.0 ],
					"order" : 2,
					"source" : [ "obj-4", 0 ]
				}

			}
, 			{
				"patchline" : 				{
					"destination" : [ "obj-43", 0 ],
					"source" : [ "obj-42", 0 ]
				}

			}
, 			{
				"patchline" : 				{
					"destination" : [ "obj-10", 0 ],
					"midpoints" : [ 584.5, 461.0, 436.5, 461.0 ],
					"source" : [ "obj-43", 0 ]
				}

			}
, 			{
				"patchline" : 				{
					"destination" : [ "obj-33", 0 ],
					"midpoints" : [ 700.5, 241.0, 567.0, 241.0, 567.0, 290.0, 584.5, 290.0 ],
					"source" : [ "obj-45", 1 ]
				}

			}
, 			{
				"patchline" : 				{
					"destination" : [ "obj-42", 0 ],
					"order" : 1,
					"source" : [ "obj-48", 0 ]
				}

			}
, 			{
				"patchline" : 				{
					"destination" : [ "obj-53", 0 ],
					"midpoints" : [ 584.5, 361.0, 680.166626, 361.0 ],
					"order" : 0,
					"source" : [ "obj-48", 0 ]
				}

			}
, 			{
				"patchline" : 				{
					"destination" : [ "obj-87", 1 ],
					"source" : [ "obj-5", 3 ]
				}

			}
, 			{
				"patchline" : 				{
					"destination" : [ "obj-87", 0 ],
					"source" : [ "obj-5", 2 ]
				}

			}
, 			{
				"patchline" : 				{
					"destination" : [ "obj-1", 0 ],
					"midpoints" : [ 604.5, 616.0, 436.5, 616.0 ],
					"source" : [ "obj-52", 0 ]
				}

			}
, 			{
				"patchline" : 				{
					"destination" : [ "obj-9", 0 ],
					"source" : [ "obj-53", 0 ]
				}

			}
, 			{
				"patchline" : 				{
					"destination" : [ "obj-55", 0 ],
					"source" : [ "obj-54", 1 ]
				}

			}
, 			{
				"patchline" : 				{
					"destination" : [ "obj-56", 0 ],
					"source" : [ "obj-54", 0 ]
				}

			}
, 			{
				"patchline" : 				{
					"destination" : [ "obj-10", 0 ],
					"midpoints" : [ 475.0, 420.0, 436.5, 420.0 ],
					"source" : [ "obj-55", 2 ]
				}

			}
, 			{
				"patchline" : 				{
					"destination" : [ "obj-52", 0 ],
					"midpoints" : [ 450.0, 431.0, 604.5, 431.0 ],
					"source" : [ "obj-55", 0 ]
				}

			}
, 			{
				"patchline" : 				{
					"destination" : [ "obj-61", 0 ],
					"midpoints" : [ 462.5, 495.0, 507.0, 495.0, 507.0, 537.0, 436.5, 537.0 ],
					"source" : [ "obj-55", 1 ]
				}

			}
, 			{
				"patchline" : 				{
					"destination" : [ "obj-10", 0 ],
					"source" : [ "obj-56", 0 ]
				}

			}
, 			{
				"patchline" : 				{
					"destination" : [ "obj-20", 0 ],
					"source" : [ "obj-56", 1 ]
				}

			}
, 			{
				"patchline" : 				{
					"destination" : [ "obj-19", 1 ],
					"order" : 0,
					"source" : [ "obj-6", 0 ]
				}

			}
, 			{
				"patchline" : 				{
					"destination" : [ "obj-38", 1 ],
					"order" : 3,
					"source" : [ "obj-6", 0 ]
				}

			}
, 			{
				"patchline" : 				{
					"destination" : [ "obj-39", 1 ],
					"order" : 1,
					"source" : [ "obj-6", 0 ]
				}

			}
, 			{
				"patchline" : 				{
					"destination" : [ "obj-8", 0 ],
					"order" : 2,
					"source" : [ "obj-6", 0 ]
				}

			}
, 			{
				"patchline" : 				{
					"destination" : [ "obj-67", 0 ],
					"source" : [ "obj-61", 0 ]
				}

			}
, 			{
				"patchline" : 				{
					"destination" : [ "obj-1", 0 ],
					"source" : [ "obj-67", 0 ]
				}

			}
, 			{
				"patchline" : 				{
					"destination" : [ "obj-25", 0 ],
					"midpoints" : [ 61.410393, 381.0, 36.0, 381.0, 36.0, 156.0, 60.410393, 156.0 ],
					"order" : 1,
					"source" : [ "obj-69", 0 ]
				}

			}
, 			{
				"patchline" : 				{
					"destination" : [ "obj-3", 0 ],
					"order" : 0,
					"source" : [ "obj-69", 0 ]
				}

			}
, 			{
				"patchline" : 				{
					"destination" : [ "obj-71", 0 ],
					"source" : [ "obj-70", 0 ]
				}

			}
, 			{
				"patchline" : 				{
					"destination" : [ "obj-24", 0 ],
					"source" : [ "obj-71", 0 ]
				}

			}
, 			{
				"patchline" : 				{
					"destination" : [ "obj-14", 0 ],
					"source" : [ "obj-72", 0 ]
				}

			}
, 			{
				"patchline" : 				{
					"destination" : [ "obj-75", 0 ],
					"source" : [ "obj-74", 0 ]
				}

			}
, 			{
				"patchline" : 				{
					"destination" : [ "obj-79", 0 ],
					"source" : [ "obj-78", 0 ]
				}

			}
, 			{
				"patchline" : 				{
					"destination" : [ "obj-80", 0 ],
					"source" : [ "obj-79", 0 ]
				}

			}
, 			{
				"patchline" : 				{
					"destination" : [ "obj-110", 0 ],
					"source" : [ "obj-80", 0 ]
				}

			}
, 			{
				"patchline" : 				{
					"destination" : [ "obj-88", 0 ],
					"source" : [ "obj-87", 0 ]
				}

			}
, 			{
				"patchline" : 				{
					"destination" : [ "obj-100", 1 ],
					"source" : [ "obj-88", 0 ]
				}

			}
, 			{
				"patchline" : 				{
					"destination" : [ "obj-52", 1 ],
					"source" : [ "obj-9", 0 ]
				}

			}
, 			{
				"patchline" : 				{
					"destination" : [ "obj-107", 0 ],
					"source" : [ "obj-98", 0 ]
				}

			}
 ]
	}

}
